
<svg width="50" height="24" viewBox="0 0 50 24" fill="none" xmlns="http://www.w3.org/2000/svg">
  <path d="M13 20V4.52413C13 4.05811 12.4614 3.82473 12.1464 4.15426L9 7.44597" stroke="black" stroke-width="2" stroke-linecap="round" />
  <path transform="translate(15,0)" d="M13 20V4.52413C13 4.05811 12.4614 3.82473 12.1464 4.15426L9 7.44597" stroke="black" stroke-width="2" stroke-linecap="round" />
  <path transform="translate(30,0)" d="M17 8.75C17 11.3734 14.7614 13.5 12 13.5C9.23858 13.5 7 11.3734 7 8.75C7 6.12665 9.23858 4 12 4C14.7614 4 17 6.12665 17 8.75ZM17 8.75V14C17 18 14.632 20 12 20C10.5 20 8.75 19.3 7.75 17.5" stroke="black" stroke-width="2" stroke-linecap="round" stroke-linejoin="round" />
</svg>