
<svg width="50" height="24" viewBox="0 0 50 24" fill="none" xmlns="http://www.w3.org/2000/svg">
  <path d="M7.06898 9C6.57318 6.25 8.804 4 12.0264 4C15.0008 4 17.2126 6.46096 16.9837 9C16.488 14.5 7.06893 13 7.06898 20H16.9837" stroke="black" stroke-width="2" stroke-linecap="round" stroke-linejoin="round" />
  <path transform="translate(15,0)" d="M7 4H17L9 20" stroke="black" stroke-width="2" stroke-linecap="round" stroke-linejoin="round" />
  <path transform="translate(30,0)" d="M12 12C14.4853 12 16.5 10.2091 16.5 8C16.5 5.79086 14.4853 4 12 4C9.51472 4 7.5 5.79086 7.5 8C7.5 10.2091 9.51472 12 12 12ZM12 12C9.23858 12 7 13.7909 7 16C7 18.2091 9.23858 20 12 20C14.7614 20 17 18.2091 17 16C17 13.7909 14.7614 12 12 12Z" stroke="black" stroke-width="2" />
</svg>