
<svg width="50" height="24" viewBox="0 0 50 24" fill="none" xmlns="http://www.w3.org/2000/svg">
  <path d="M7 17.8755C7.99537 19.1605 9.63984 20 11.5 20C14.5376 20 17 17.7614 17 15C17 12.2386 14.5376 10 11.5 10C9.63984 10 7.99537 10.8395 7 12.1245L8 4H16" stroke="black" stroke-width="2" stroke-linecap="round" stroke-linejoin="round" />
  <path transform="translate(15,0)" d="M7 15C7 17.7614 9.23858 20 12 20C14.7614 20 17 17.7614 17 15C17 12.2386 14.7614 10 12 10C9.23858 10 7 12.2386 7 15ZM7 15V10C7 6 9.36799 4 12 4C13.5 4 15.25 4.7 16.25 6.5" stroke="black" stroke-width="2" stroke-linecap="round" stroke-linejoin="round" />
  <path transform="translate(30,0)" d="M7 17.8755C7.99537 19.1605 9.63984 20 11.5 20C14.5376 20 17 17.7614 17 15C17 12.2386 14.5376 10 11.5 10C9.63984 10 7.99537 10.8395 7 12.1245L8 4H16" stroke="black" stroke-width="2" stroke-linecap="round" stroke-linejoin="round" />
</svg>