
<svg width="50" height="24" viewBox="0 0 50 24" fill="none" xmlns="http://www.w3.org/2000/svg">
  <path d="M7 17.8755C7.99537 19.1605 9.63984 20 11.5 20C14.5376 20 17 17.7614 17 15C17 12.2386 14.5376 10 11.5 10C9.63984 10 7.99537 10.8395 7 12.1245L8 4H16" stroke="black" stroke-width="2" stroke-linecap="round" stroke-linejoin="round" />
  <path transform="translate(15,0)" d="M7 4H17L9 20" stroke="black" stroke-width="2" stroke-linecap="round" stroke-linejoin="round" />
  <path transform="translate(30,0)" d="M7.06898 9C6.57318 6.25 8.804 4 12.0264 4C15.0008 4 17.2126 6.46096 16.9837 9C16.488 14.5 7.06893 13 7.06898 20H16.9837" stroke="black" stroke-width="2" stroke-linecap="round" stroke-linejoin="round" />
</svg>