
<svg width="50" height="24" viewBox="0 0 50 24" fill="none" xmlns="http://www.w3.org/2000/svg">
  <path d="M7 17.8755C7.99537 19.1605 9.63984 20 11.5 20C14.5376 20 17 17.7614 17 15C17 12.2386 14.5376 10 11.5 10C9.63984 10 7.99537 10.8395 7 12.1245L8 4H16" stroke="black" stroke-width="2" stroke-linecap="round" stroke-linejoin="round" />
  <path transform="translate(15,0)" d="M7 4H17L9 20" stroke="black" stroke-width="2" stroke-linecap="round" stroke-linejoin="round" />
  <path transform="translate(30,0)" d="M12 12C14.4853 12 16.5 10.2091 16.5 8C16.5 5.79086 14.4853 4 12 4C9.51472 4 7.5 5.79086 7.5 8C7.5 10.2091 9.51472 12 12 12ZM12 12C9.23858 12 7 13.7909 7 16C7 18.2091 9.23858 20 12 20C14.7614 20 17 18.2091 17 16C17 13.7909 14.7614 12 12 12Z" stroke="black" stroke-width="2" />
</svg>