
<svg width="50" height="24" viewBox="0 0 50 24" fill="none" xmlns="http://www.w3.org/2000/svg">
  <path d="M7 15C7 17.7614 9.23858 20 12 20C14.7614 20 17 17.7614 17 15C17 12.2386 14.7614 10 12 10C9.23858 10 7 12.2386 7 15ZM7 15V10C7 6 9.36799 4 12 4C13.5 4 15.25 4.7 16.25 6.5" stroke="black" stroke-width="2" stroke-linecap="round" stroke-linejoin="round" />
  <ellipse transform="translate(15,0)" cx="12" cy="12" rx="5.5" ry="8" stroke="black" stroke-width="2" />
  <path transform="translate(30,0)" d="M17 8.75C17 11.3734 14.7614 13.5 12 13.5C9.23858 13.5 7 11.3734 7 8.75C7 6.12665 9.23858 4 12 4C14.7614 4 17 6.12665 17 8.75ZM17 8.75V14C17 18 14.632 20 12 20C10.5 20 8.75 19.3 7.75 17.5" stroke="black" stroke-width="2" stroke-linecap="round" stroke-linejoin="round" />
</svg>