
<svg width="50" height="24" viewBox="0 0 50 24" fill="none" xmlns="http://www.w3.org/2000/svg">
  <path d="M17 8.75C17 11.3734 14.7614 13.5 12 13.5C9.23858 13.5 7 11.3734 7 8.75C7 6.12665 9.23858 4 12 4C14.7614 4 17 6.12665 17 8.75ZM17 8.75V14C17 18 14.632 20 12 20C10.5 20 8.75 19.3 7.75 17.5" stroke="black" stroke-width="2" stroke-linecap="round" stroke-linejoin="round" />
  <path transform="translate(15,0)" d="M17 8.75C17 11.3734 14.7614 13.5 12 13.5C9.23858 13.5 7 11.3734 7 8.75C7 6.12665 9.23858 4 12 4C14.7614 4 17 6.12665 17 8.75ZM17 8.75V14C17 18 14.632 20 12 20C10.5 20 8.75 19.3 7.75 17.5" stroke="black" stroke-width="2" stroke-linecap="round" stroke-linejoin="round" />
  <path transform="translate(30,0)" d="M7 17.8755C7.99537 19.1605 9.63984 20 11.5 20C14.5376 20 17 17.7614 17 15C17 12.2386 14.5376 10 11.5 10C9.63984 10 7.99537 10.8395 7 12.1245L8 4H16" stroke="black" stroke-width="2" stroke-linecap="round" stroke-linejoin="round" />
</svg>