<svg width="25" height="12" viewBox="0 0 25 12" fill="none" xmlns="http://www.w3.org/2000/svg">
<path d="M1.41477 9H0.306818L3.51136 0.272727H4.60227L7.80682 9H6.69886L4.09091 1.65341H4.02273L1.41477 9ZM1.82386 5.59091H6.28977V6.52841H1.82386V5.59091ZM9.02983 11.4545V2.45455H10.0014V3.49432H10.1207C10.1946 3.38068 10.2969 3.2358 10.4276 3.05966C10.5611 2.88068 10.7514 2.72159 10.9986 2.58239C11.2486 2.44034 11.5866 2.36932 12.0128 2.36932C12.5639 2.36932 13.0497 2.5071 13.4702 2.78267C13.8906 3.05824 14.2188 3.44886 14.4545 3.95455C14.6903 4.46023 14.8082 5.05682 14.8082 5.74432C14.8082 6.4375 14.6903 7.03835 14.4545 7.54688C14.2188 8.05256 13.892 8.4446 13.4744 8.72301C13.0568 8.99858 12.5753 9.13636 12.0298 9.13636C11.6094 9.13636 11.2727 9.06676 11.0199 8.92756C10.767 8.78551 10.5724 8.625 10.4361 8.44602C10.2997 8.2642 10.1946 8.11364 10.1207 7.99432H10.0355V11.4545H9.02983ZM10.0185 5.72727C10.0185 6.22159 10.0909 6.65767 10.2358 7.03551C10.3807 7.41051 10.5923 7.70455 10.8707 7.91761C11.1491 8.12784 11.4901 8.23295 11.8935 8.23295C12.3139 8.23295 12.6648 8.12216 12.946 7.90057C13.2301 7.67614 13.4432 7.375 13.5852 6.99716C13.7301 6.61648 13.8026 6.19318 13.8026 5.72727C13.8026 5.26705 13.7315 4.85227 13.5895 4.48295C13.4503 4.1108 13.2386 3.81676 12.9545 3.60085C12.6733 3.3821 12.3196 3.27273 11.8935 3.27273C11.4844 3.27273 11.1406 3.37642 10.8622 3.58381C10.5838 3.78835 10.3736 4.07528 10.2315 4.4446C10.0895 4.81108 10.0185 5.23864 10.0185 5.72727ZM16.3423 9V2.45455H17.3139V3.44318H17.3821C17.5014 3.11932 17.7173 2.85653 18.0298 2.65483C18.3423 2.45312 18.6946 2.35227 19.0866 2.35227C19.1605 2.35227 19.2528 2.35369 19.3636 2.35653C19.4744 2.35937 19.5582 2.36364 19.6151 2.36932V3.39205C19.581 3.38352 19.5028 3.37074 19.3807 3.35369C19.2614 3.33381 19.1349 3.32386 19.0014 3.32386C18.6832 3.32386 18.3991 3.39062 18.1491 3.52415C17.902 3.65483 17.706 3.83665 17.5611 4.0696C17.419 4.29972 17.348 4.5625 17.348 4.85795V9H16.3423ZM20.8072 9V2.45455H21.8129V9H20.8072ZM21.3185 1.36364C21.1225 1.36364 20.9535 1.29688 20.8114 1.16335C20.6722 1.02983 20.6026 0.869318 20.6026 0.681818C20.6026 0.494318 20.6722 0.333807 20.8114 0.200284C20.9535 0.0667613 21.1225 0 21.3185 0C21.5146 0 21.6822 0.0667613 21.8214 0.200284C21.9634 0.333807 22.0344 0.494318 22.0344 0.681818C22.0344 0.869318 21.9634 1.02983 21.8214 1.16335C21.6822 1.29688 21.5146 1.36364 21.3185 1.36364ZM24.6605 0.272727V9H23.6548V0.272727H24.6605Z" fill="black"/>
</svg>
