<svg width="40" height="12" viewBox="0 0 40 12" fill="none" xmlns="http://www.w3.org/2000/svg">
<path d="M1.41477 9H0.306818L3.51136 0.272727H4.60227L7.80682 9H6.69886L4.09091 1.65341H4.02273L1.41477 9ZM1.82386 5.59091H6.28977V6.52841H1.82386V5.59091ZM13.1548 6.32386V2.45455H14.1605V9H13.1548V7.89205H13.0866C12.9332 8.22443 12.6946 8.5071 12.3707 8.74006C12.0469 8.97017 11.6378 9.08523 11.1435 9.08523C10.7344 9.08523 10.3707 8.99574 10.0526 8.81676C9.73438 8.63494 9.48438 8.36222 9.30256 7.99858C9.12074 7.6321 9.02983 7.17045 9.02983 6.61364V2.45455H10.0355V6.54545C10.0355 7.02273 10.169 7.40341 10.4361 7.6875C10.706 7.97159 11.0497 8.11364 11.4673 8.11364C11.7173 8.11364 11.9716 8.04972 12.2301 7.92188C12.4915 7.79403 12.7102 7.59801 12.8864 7.33381C13.0653 7.0696 13.1548 6.73295 13.1548 6.32386ZM18.6445 11.5909C18.1587 11.5909 17.7411 11.5284 17.3917 11.4034C17.0423 11.2812 16.7511 11.1193 16.5181 10.9176C16.288 10.7188 16.1048 10.5057 15.9684 10.2784L16.7695 9.71591C16.8604 9.83523 16.9755 9.97159 17.1147 10.125C17.2539 10.2812 17.4442 10.4162 17.6857 10.5298C17.93 10.6463 18.2496 10.7045 18.6445 10.7045C19.1729 10.7045 19.609 10.5767 19.9528 10.321C20.2965 10.0653 20.4684 9.66477 20.4684 9.11932V7.78977H20.3832C20.3093 7.90909 20.2042 8.05682 20.0678 8.23295C19.9343 8.40625 19.7411 8.56108 19.4883 8.69744C19.2383 8.83097 18.9002 8.89773 18.4741 8.89773C17.9457 8.89773 17.4712 8.77273 17.0508 8.52273C16.6332 8.27273 16.3022 7.90909 16.0579 7.43182C15.8164 6.95455 15.6957 6.375 15.6957 5.69318C15.6957 5.02273 15.8136 4.43892 16.0494 3.94176C16.2852 3.44176 16.6133 3.0554 17.0337 2.78267C17.4542 2.5071 17.94 2.36932 18.4911 2.36932C18.9173 2.36932 19.2553 2.44034 19.5053 2.58239C19.7582 2.72159 19.9513 2.88068 20.0849 3.05966C20.2212 3.2358 20.3263 3.38068 20.4002 3.49432H20.5025V2.45455H21.4741V9.1875C21.4741 9.75 21.3462 10.2074 21.0906 10.5597C20.8377 10.9148 20.4968 11.1747 20.0678 11.3395C19.6417 11.5071 19.1673 11.5909 18.6445 11.5909ZM18.6104 7.99432C19.0138 7.99432 19.3548 7.90199 19.6332 7.71733C19.9116 7.53267 20.1232 7.26705 20.2681 6.92045C20.413 6.57386 20.4854 6.15909 20.4854 5.67614C20.4854 5.20455 20.4144 4.78835 20.2724 4.42756C20.1303 4.06676 19.9201 3.78409 19.6417 3.57955C19.3633 3.375 19.0195 3.27273 18.6104 3.27273C18.1843 3.27273 17.8292 3.38068 17.5451 3.59659C17.2638 3.8125 17.0522 4.10227 16.9102 4.46591C16.771 4.82955 16.7013 5.23295 16.7013 5.67614C16.7013 6.13068 16.7724 6.53267 16.9144 6.8821C17.0593 7.22869 17.2724 7.50142 17.5536 7.70028C17.8377 7.89631 18.19 7.99432 18.6104 7.99432ZM27.44 6.32386V2.45455H28.4457V9H27.44V7.89205H27.3718C27.2184 8.22443 26.9798 8.5071 26.6559 8.74006C26.332 8.97017 25.9229 9.08523 25.4286 9.08523C25.0195 9.08523 24.6559 8.99574 24.3377 8.81676C24.0195 8.63494 23.7695 8.36222 23.5877 7.99858C23.4059 7.6321 23.315 7.17045 23.315 6.61364V2.45455H24.3207V6.54545C24.3207 7.02273 24.4542 7.40341 24.7212 7.6875C24.9911 7.97159 25.3349 8.11364 25.7525 8.11364C26.0025 8.11364 26.2567 8.04972 26.5153 7.92188C26.7766 7.79403 26.9954 7.59801 27.1715 7.33381C27.3505 7.0696 27.44 6.73295 27.44 6.32386ZM34.924 3.92045L34.0206 4.17614C33.9638 4.02557 33.88 3.87926 33.7692 3.73722C33.6612 3.59233 33.5135 3.47301 33.326 3.37926C33.1385 3.28551 32.8984 3.23864 32.6058 3.23864C32.2053 3.23864 31.8714 3.33097 31.6044 3.51562C31.3402 3.69744 31.2081 3.92898 31.2081 4.21023C31.2081 4.46023 31.299 4.65767 31.4808 4.80256C31.6626 4.94744 31.9467 5.06818 32.3331 5.16477L33.3047 5.40341C33.8899 5.54545 34.326 5.76278 34.6129 6.0554C34.8999 6.34517 35.0433 6.71875 35.0433 7.17614C35.0433 7.55114 34.9354 7.88636 34.7195 8.18182C34.5064 8.47727 34.2081 8.71023 33.8246 8.88068C33.4411 9.05114 32.995 9.13636 32.4865 9.13636C31.8189 9.13636 31.2663 8.99148 30.8288 8.7017C30.3913 8.41193 30.1143 7.98864 29.9979 7.43182L30.9524 7.19318C31.0433 7.54545 31.2152 7.80966 31.468 7.9858C31.7237 8.16193 32.0575 8.25 32.4695 8.25C32.9382 8.25 33.3104 8.15057 33.5859 7.9517C33.8643 7.75 34.0036 7.50852 34.0036 7.22727C34.0036 7 33.924 6.80966 33.7649 6.65625C33.6058 6.5 33.3615 6.38352 33.032 6.30682L31.9411 6.05114C31.3416 5.90909 30.9013 5.68892 30.62 5.39062C30.3416 5.08949 30.2024 4.71307 30.2024 4.26136C30.2024 3.89205 30.3061 3.56534 30.5135 3.28125C30.7237 2.99716 31.0092 2.77415 31.37 2.61222C31.7337 2.45028 32.1456 2.36932 32.6058 2.36932C33.2536 2.36932 33.7621 2.51136 34.1314 2.79545C34.5036 3.07955 34.7678 3.45455 34.924 3.92045ZM39.4038 2.45455V3.30682H36.0117V2.45455H39.4038ZM37.0004 0.886364H38.006V7.125C38.006 7.40909 38.0472 7.62216 38.1296 7.7642C38.2148 7.90341 38.3228 7.99716 38.4535 8.04545C38.587 8.09091 38.7276 8.11364 38.8754 8.11364C38.9862 8.11364 39.0771 8.10795 39.1481 8.09659C39.2191 8.08239 39.2759 8.07102 39.3185 8.0625L39.5231 8.96591C39.4549 8.99148 39.3597 9.01705 39.2376 9.04261C39.1154 9.07102 38.9606 9.08523 38.7731 9.08523C38.489 9.08523 38.2106 9.02415 37.9379 8.90199C37.668 8.77983 37.4435 8.59375 37.2646 8.34375C37.0884 8.09375 37.0004 7.77841 37.0004 7.39773V0.886364Z" fill="black"/>
</svg>
