<svg width="6" height="10" viewBox="0 0 6 10" fill="none" xmlns="http://www.w3.org/2000/svg">
<path d="M0.0568182 9V0.272727H1.0625V3.49432H1.14773C1.22159 3.38068 1.32386 3.2358 1.45455 3.05966C1.58807 2.88068 1.77841 2.72159 2.02557 2.58239C2.27557 2.44034 2.61364 2.36932 3.03977 2.36932C3.59091 2.36932 4.0767 2.5071 4.49716 2.78267C4.91761 3.05824 5.24574 3.44886 5.48153 3.95455C5.71733 4.46023 5.83523 5.05682 5.83523 5.74432C5.83523 6.4375 5.71733 7.03835 5.48153 7.54688C5.24574 8.05256 4.91903 8.4446 4.50142 8.72301C4.08381 8.99858 3.60227 9.13636 3.05682 9.13636C2.63636 9.13636 2.29972 9.06676 2.04688 8.92756C1.79403 8.78551 1.59943 8.625 1.46307 8.44602C1.3267 8.2642 1.22159 8.11364 1.14773 7.99432H1.02841V9H0.0568182ZM1.04545 5.72727C1.04545 6.22159 1.1179 6.65767 1.26278 7.03551C1.40767 7.41051 1.61932 7.70455 1.89773 7.91761C2.17614 8.12784 2.51705 8.23295 2.92045 8.23295C3.34091 8.23295 3.69176 8.12216 3.97301 7.90057C4.2571 7.67614 4.47017 7.375 4.61222 6.99716C4.7571 6.61648 4.82955 6.19318 4.82955 5.72727C4.82955 5.26705 4.75852 4.85227 4.61648 4.48295C4.47727 4.1108 4.26563 3.81676 3.98153 3.60085C3.70028 3.3821 3.34659 3.27273 2.92045 3.27273C2.51136 3.27273 2.16761 3.37642 1.8892 3.58381C1.6108 3.78835 1.40057 4.07528 1.25852 4.4446C1.11648 4.81108 1.04545 5.23864 1.04545 5.72727Z" fill="black"/>
</svg>
