<svg width="7" height="9" viewBox="0 0 7 9" fill="none" xmlns="http://www.w3.org/2000/svg">
<path d="M0.0568182 9V0.272727H3.10795C3.71591 0.272727 4.21733 0.377841 4.61222 0.588068C5.0071 0.795454 5.30114 1.07528 5.49432 1.42756C5.6875 1.77699 5.78409 2.16477 5.78409 2.59091C5.78409 2.96591 5.71733 3.27557 5.58381 3.51989C5.45313 3.7642 5.27983 3.95739 5.06392 4.09943C4.85085 4.24148 4.61932 4.34659 4.36932 4.41477V4.5C4.63636 4.51705 4.90483 4.6108 5.17472 4.78125C5.4446 4.9517 5.67045 5.19602 5.85227 5.5142C6.03409 5.83239 6.125 6.22159 6.125 6.68182C6.125 7.11932 6.02557 7.51278 5.8267 7.86222C5.62784 8.21165 5.31392 8.48864 4.88494 8.69318C4.45597 8.89773 3.89773 9 3.21023 9H0.0568182ZM1.11364 8.0625H3.21023C3.90057 8.0625 4.39063 7.92898 4.6804 7.66193C4.97301 7.39205 5.11932 7.06534 5.11932 6.68182C5.11932 6.38636 5.04403 6.11364 4.89347 5.86364C4.7429 5.6108 4.52841 5.40909 4.25 5.25852C3.97159 5.10511 3.64205 5.02841 3.26136 5.02841H1.11364V8.0625ZM1.11364 4.10795H3.07386C3.39205 4.10795 3.67898 4.04545 3.93466 3.92045C4.19318 3.79545 4.39773 3.61932 4.5483 3.39205C4.7017 3.16477 4.77841 2.89773 4.77841 2.59091C4.77841 2.20739 4.64489 1.8821 4.37784 1.61506C4.1108 1.34517 3.6875 1.21023 3.10795 1.21023H1.11364V4.10795Z" fill="black"/>
</svg>
