<svg width="7" height="8" viewBox="0 0 7 8" fill="none" xmlns="http://www.w3.org/2000/svg">
<path d="M3.57955 7.13636C2.96591 7.13636 2.4375 6.99148 1.99432 6.7017C1.55114 6.41193 1.21023 6.01278 0.971591 5.50426C0.732955 4.99574 0.613636 4.41477 0.613636 3.76136C0.613636 3.09659 0.735795 2.50994 0.980114 2.00142C1.22727 1.49006 1.57102 1.09091 2.01136 0.803977C2.45455 0.514205 2.97159 0.369318 3.5625 0.369318C4.02273 0.369318 4.4375 0.454545 4.80682 0.625C5.17614 0.795455 5.47869 1.03409 5.71449 1.34091C5.95028 1.64773 6.09659 2.00568 6.15341 2.41477H5.14773C5.07102 2.11648 4.90057 1.85227 4.63636 1.62216C4.375 1.3892 4.02273 1.27273 3.57955 1.27273C3.1875 1.27273 2.84375 1.375 2.5483 1.57955C2.25568 1.78125 2.02699 2.06676 1.86222 2.43608C1.70028 2.80256 1.61932 3.23295 1.61932 3.72727C1.61932 4.23295 1.69886 4.6733 1.85795 5.0483C2.01989 5.4233 2.24716 5.71449 2.53977 5.92188C2.83523 6.12926 3.18182 6.23295 3.57955 6.23295C3.84091 6.23295 4.07812 6.1875 4.29119 6.09659C4.50426 6.00568 4.68466 5.875 4.83239 5.70455C4.98011 5.53409 5.08523 5.32955 5.14773 5.09091H6.15341C6.09659 5.47727 5.95597 5.82528 5.73153 6.13494C5.50994 6.44176 5.21591 6.68608 4.84943 6.8679C4.4858 7.04688 4.0625 7.13636 3.57955 7.13636Z" fill="black"/>
</svg>
