<svg width="7" height="10" viewBox="0 0 7 10" fill="none" xmlns="http://www.w3.org/2000/svg">
<path d="M3.39205 9.13636C2.84659 9.13636 2.36506 8.99858 1.94744 8.72301C1.52983 8.4446 1.20313 8.05256 0.96733 7.54688C0.731534 7.03835 0.613636 6.4375 0.613636 5.74432C0.613636 5.05682 0.731534 4.46023 0.96733 3.95455C1.20313 3.44886 1.53125 3.05824 1.9517 2.78267C2.37216 2.5071 2.85795 2.36932 3.40909 2.36932C3.83523 2.36932 4.17188 2.44034 4.41903 2.58239C4.66903 2.72159 4.85938 2.88068 4.99006 3.05966C5.12358 3.2358 5.22727 3.38068 5.30114 3.49432H5.38636V0.272727H6.39205V9H5.42045V7.99432H5.30114C5.22727 8.11364 5.12216 8.2642 4.9858 8.44602C4.84943 8.625 4.65483 8.78551 4.40199 8.92756C4.14915 9.06676 3.8125 9.13636 3.39205 9.13636ZM3.52841 8.23295C3.93182 8.23295 4.27273 8.12784 4.55114 7.91761C4.82955 7.70455 5.04119 7.41051 5.18608 7.03551C5.33097 6.65767 5.40341 6.22159 5.40341 5.72727C5.40341 5.23864 5.33239 4.81108 5.19034 4.4446C5.0483 4.07528 4.83807 3.78835 4.55966 3.58381C4.28125 3.37642 3.9375 3.27273 3.52841 3.27273C3.10227 3.27273 2.74716 3.3821 2.46307 3.60085C2.18182 3.81676 1.97017 4.1108 1.82812 4.48295C1.68892 4.85227 1.61932 5.26705 1.61932 5.72727C1.61932 6.19318 1.69034 6.61648 1.83239 6.99716C1.97727 7.375 2.19034 7.67614 2.47159 7.90057C2.75568 8.12216 3.10795 8.23295 3.52841 8.23295Z" fill="black"/>
</svg>
