<svg width="7" height="9" viewBox="0 0 7 9" fill="none" xmlns="http://www.w3.org/2000/svg">
<path d="M2.75 9H0.0568182V0.272727H2.86932C3.71591 0.272727 4.44034 0.447443 5.04261 0.796875C5.64489 1.14347 6.10653 1.64205 6.42756 2.29261C6.74858 2.94034 6.90909 3.71591 6.90909 4.61932C6.90909 5.52841 6.74716 6.31108 6.4233 6.96733C6.09943 7.62074 5.62784 8.12358 5.00852 8.47585C4.3892 8.82528 3.63636 9 2.75 9ZM1.11364 8.0625H2.68182C3.40341 8.0625 4.00142 7.9233 4.47585 7.64489C4.95028 7.36648 5.30398 6.97017 5.53693 6.45597C5.76989 5.94176 5.88636 5.32955 5.88636 4.61932C5.88636 3.91477 5.77131 3.30824 5.54119 2.79972C5.31108 2.28835 4.96733 1.89631 4.50994 1.62358C4.05256 1.34801 3.48295 1.21023 2.80114 1.21023H1.11364V8.0625Z" fill="black"/>
</svg>
