<svg width="58" height="10" viewBox="0 0 58 10" fill="none" xmlns="http://www.w3.org/2000/svg">
<path d="M2.75 9H0.0568182V0.272727H2.86932C3.71591 0.272727 4.44034 0.447443 5.04261 0.796875C5.64489 1.14347 6.10653 1.64205 6.42756 2.29261C6.74858 2.94034 6.90909 3.71591 6.90909 4.61932C6.90909 5.52841 6.74716 6.31108 6.4233 6.96733C6.09943 7.62074 5.62784 8.12358 5.00852 8.47585C4.3892 8.82528 3.63636 9 2.75 9ZM1.11364 8.0625H2.68182C3.40341 8.0625 4.00142 7.9233 4.47585 7.64489C4.95028 7.36648 5.30398 6.97017 5.53693 6.45597C5.76989 5.94176 5.88636 5.32955 5.88636 4.61932C5.88636 3.91477 5.77131 3.30824 5.54119 2.79972C5.31108 2.28835 4.96733 1.89631 4.50994 1.62358C4.05256 1.34801 3.48295 1.21023 2.80114 1.21023H1.11364V8.0625ZM11.2898 9.13636C10.6591 9.13636 10.1151 8.99716 9.65767 8.71875C9.20312 8.4375 8.85227 8.04545 8.60511 7.54261C8.3608 7.03693 8.23864 6.44886 8.23864 5.77841C8.23864 5.10795 8.3608 4.51705 8.60511 4.00568C8.85227 3.49148 9.19602 3.09091 9.63636 2.80398C10.0795 2.5142 10.5966 2.36932 11.1875 2.36932C11.5284 2.36932 11.8651 2.42614 12.1974 2.53977C12.5298 2.65341 12.8324 2.83807 13.1051 3.09375C13.3778 3.34659 13.5952 3.68182 13.7571 4.09943C13.919 4.51705 14 5.03125 14 5.64205V6.06818H8.95455V5.19886H12.9773C12.9773 4.82955 12.9034 4.5 12.7557 4.21023C12.6108 3.92045 12.4034 3.69176 12.1335 3.52415C11.8665 3.35653 11.5511 3.27273 11.1875 3.27273C10.7869 3.27273 10.4403 3.37216 10.1477 3.57102C9.85795 3.76705 9.63494 4.02273 9.47869 4.33807C9.32244 4.65341 9.24432 4.99148 9.24432 5.35227V5.93182C9.24432 6.42614 9.32955 6.84517 9.5 7.18892C9.6733 7.52983 9.91335 7.78977 10.2202 7.96875C10.527 8.14489 10.8835 8.23295 11.2898 8.23295C11.554 8.23295 11.7926 8.19602 12.0057 8.12216C12.2216 8.04545 12.4077 7.93182 12.5639 7.78125C12.7202 7.62784 12.8409 7.4375 12.9261 7.21023L13.8977 7.48295C13.7955 7.8125 13.6236 8.10227 13.3821 8.35227C13.1406 8.59943 12.8423 8.79261 12.4872 8.93182C12.1321 9.06818 11.733 9.13636 11.2898 9.13636ZM18.1889 9.13636C17.5753 9.13636 17.0469 8.99148 16.6037 8.7017C16.1605 8.41193 15.8196 8.01278 15.581 7.50426C15.3423 6.99574 15.223 6.41477 15.223 5.76136C15.223 5.09659 15.3452 4.50994 15.5895 4.00142C15.8366 3.49006 16.1804 3.09091 16.6207 2.80398C17.0639 2.5142 17.581 2.36932 18.1719 2.36932C18.6321 2.36932 19.0469 2.45455 19.4162 2.625C19.7855 2.79545 20.0881 3.03409 20.3239 3.34091C20.5597 3.64773 20.706 4.00568 20.7628 4.41477H19.7571C19.6804 4.11648 19.5099 3.85227 19.2457 3.62216C18.9844 3.3892 18.6321 3.27273 18.1889 3.27273C17.7969 3.27273 17.4531 3.375 17.1577 3.57955C16.8651 3.78125 16.6364 4.06676 16.4716 4.43608C16.3097 4.80256 16.2287 5.23295 16.2287 5.72727C16.2287 6.23295 16.3082 6.6733 16.4673 7.0483C16.6293 7.4233 16.8565 7.71449 17.1491 7.92188C17.4446 8.12926 17.7912 8.23295 18.1889 8.23295C18.4503 8.23295 18.6875 8.1875 18.9006 8.09659C19.1136 8.00568 19.294 7.875 19.4418 7.70455C19.5895 7.53409 19.6946 7.32955 19.7571 7.09091H20.7628C20.706 7.47727 20.5653 7.82528 20.3409 8.13494C20.1193 8.44176 19.8253 8.68608 19.4588 8.8679C19.0952 9.04688 18.6719 9.13636 18.1889 9.13636ZM24.9773 9.13636C24.3466 9.13636 23.8026 8.99716 23.3452 8.71875C22.8906 8.4375 22.5398 8.04545 22.2926 7.54261C22.0483 7.03693 21.9261 6.44886 21.9261 5.77841C21.9261 5.10795 22.0483 4.51705 22.2926 4.00568C22.5398 3.49148 22.8835 3.09091 23.3239 2.80398C23.767 2.5142 24.2841 2.36932 24.875 2.36932C25.2159 2.36932 25.5526 2.42614 25.8849 2.53977C26.2173 2.65341 26.5199 2.83807 26.7926 3.09375C27.0653 3.34659 27.2827 3.68182 27.4446 4.09943C27.6065 4.51705 27.6875 5.03125 27.6875 5.64205V6.06818H22.642V5.19886H26.6648C26.6648 4.82955 26.5909 4.5 26.4432 4.21023C26.2983 3.92045 26.0909 3.69176 25.821 3.52415C25.554 3.35653 25.2386 3.27273 24.875 3.27273C24.4744 3.27273 24.1278 3.37216 23.8352 3.57102C23.5455 3.76705 23.3224 4.02273 23.1662 4.33807C23.0099 4.65341 22.9318 4.99148 22.9318 5.35227V5.93182C22.9318 6.42614 23.017 6.84517 23.1875 7.18892C23.3608 7.52983 23.6009 7.78977 23.9077 7.96875C24.2145 8.14489 24.571 8.23295 24.9773 8.23295C25.2415 8.23295 25.4801 8.19602 25.6932 8.12216C25.9091 8.04545 26.0952 7.93182 26.2514 7.78125C26.4077 7.62784 26.5284 7.4375 26.6136 7.21023L27.5852 7.48295C27.483 7.8125 27.3111 8.10227 27.0696 8.35227C26.8281 8.59943 26.5298 8.79261 26.1747 8.93182C25.8196 9.06818 25.4205 9.13636 24.9773 9.13636ZM29.2173 9V2.45455H30.1889V3.47727H30.2741C30.4105 3.12784 30.6307 2.85653 30.9347 2.66335C31.2386 2.46733 31.6037 2.36932 32.0298 2.36932C32.4616 2.36932 32.821 2.46733 33.108 2.66335C33.3977 2.85653 33.6236 3.12784 33.7855 3.47727H33.8537C34.0213 3.1392 34.2727 2.87074 34.608 2.67188C34.9432 2.47017 35.3452 2.36932 35.8139 2.36932C36.3991 2.36932 36.8778 2.55256 37.25 2.91903C37.6222 3.28267 37.8082 3.84943 37.8082 4.61932V9H36.8026V4.61932C36.8026 4.13636 36.6705 3.79119 36.4062 3.58381C36.142 3.37642 35.831 3.27273 35.473 3.27273C35.0128 3.27273 34.6563 3.41193 34.4034 3.69034C34.1506 3.96591 34.0241 4.31534 34.0241 4.73864V9H33.0014V4.51705C33.0014 4.14489 32.8807 3.84517 32.6392 3.6179C32.3977 3.38778 32.0866 3.27273 31.706 3.27273C31.4446 3.27273 31.2003 3.34233 30.973 3.48153C30.7486 3.62074 30.5668 3.81392 30.4276 4.06108C30.2912 4.3054 30.223 4.58807 30.223 4.90909V9H29.2173ZM39.7834 9V0.272727H40.7891V3.49432H40.8743C40.9482 3.38068 41.0504 3.2358 41.1811 3.05966C41.3146 2.88068 41.505 2.72159 41.7521 2.58239C42.0021 2.44034 42.3402 2.36932 42.7663 2.36932C43.3175 2.36932 43.8033 2.5071 44.2237 2.78267C44.6442 3.05824 44.9723 3.44886 45.2081 3.95455C45.4439 4.46023 45.5618 5.05682 45.5618 5.74432C45.5618 6.4375 45.4439 7.03835 45.2081 7.54688C44.9723 8.05256 44.6456 8.4446 44.228 8.72301C43.8104 8.99858 43.3288 9.13636 42.7834 9.13636C42.3629 9.13636 42.0263 9.06676 41.7734 8.92756C41.5206 8.78551 41.326 8.625 41.1896 8.44602C41.0533 8.2642 40.9482 8.11364 40.8743 7.99432H40.755V9H39.7834ZM40.772 5.72727C40.772 6.22159 40.8445 6.65767 40.9893 7.03551C41.1342 7.41051 41.3459 7.70455 41.6243 7.91761C41.9027 8.12784 42.2436 8.23295 42.647 8.23295C43.0675 8.23295 43.4183 8.12216 43.6996 7.90057C43.9837 7.67614 44.1967 7.375 44.3388 6.99716C44.4837 6.61648 44.5561 6.19318 44.5561 5.72727C44.5561 5.26705 44.4851 4.85227 44.343 4.48295C44.2038 4.1108 43.9922 3.81676 43.7081 3.60085C43.4268 3.3821 43.0732 3.27273 42.647 3.27273C42.2379 3.27273 41.8942 3.37642 41.6158 3.58381C41.3374 3.78835 41.1271 4.07528 40.9851 4.4446C40.843 4.81108 40.772 5.23864 40.772 5.72727ZM49.8445 9.13636C49.2138 9.13636 48.6697 8.99716 48.2124 8.71875C47.7578 8.4375 47.407 8.04545 47.1598 7.54261C46.9155 7.03693 46.7933 6.44886 46.7933 5.77841C46.7933 5.10795 46.9155 4.51705 47.1598 4.00568C47.407 3.49148 47.7507 3.09091 48.1911 2.80398C48.6342 2.5142 49.1513 2.36932 49.7422 2.36932C50.0831 2.36932 50.4197 2.42614 50.7521 2.53977C51.0845 2.65341 51.3871 2.83807 51.6598 3.09375C51.9325 3.34659 52.1499 3.68182 52.3118 4.09943C52.4737 4.51705 52.5547 5.03125 52.5547 5.64205V6.06818H47.5092V5.19886H51.532C51.532 4.82955 51.4581 4.5 51.3104 4.21023C51.1655 3.92045 50.9581 3.69176 50.6882 3.52415C50.4212 3.35653 50.1058 3.27273 49.7422 3.27273C49.3416 3.27273 48.995 3.37216 48.7024 3.57102C48.4126 3.76705 48.1896 4.02273 48.0334 4.33807C47.8771 4.65341 47.799 4.99148 47.799 5.35227V5.93182C47.799 6.42614 47.8842 6.84517 48.0547 7.18892C48.228 7.52983 48.468 7.78977 48.7749 7.96875C49.0817 8.14489 49.4382 8.23295 49.8445 8.23295C50.1087 8.23295 50.3473 8.19602 50.5604 8.12216C50.7763 8.04545 50.9624 7.93182 51.1186 7.78125C51.2749 7.62784 51.3956 7.4375 51.4808 7.21023L52.4524 7.48295C52.3501 7.8125 52.1783 8.10227 51.9368 8.35227C51.6953 8.59943 51.397 8.79261 51.0419 8.93182C50.6868 9.06818 50.2876 9.13636 49.8445 9.13636ZM54.0845 9V2.45455H55.0561V3.44318H55.1243C55.2436 3.11932 55.4595 2.85653 55.772 2.65483C56.0845 2.45312 56.4368 2.35227 56.8288 2.35227C56.9027 2.35227 56.995 2.35369 57.1058 2.35653C57.2166 2.35937 57.3004 2.36364 57.3572 2.36932V3.39205C57.3232 3.38352 57.245 3.37074 57.1229 3.35369C57.0036 3.33381 56.8771 3.32386 56.7436 3.32386C56.4254 3.32386 56.1413 3.39062 55.8913 3.52415C55.6442 3.65483 55.4482 3.83665 55.3033 4.0696C55.1612 4.29972 55.0902 4.5625 55.0902 4.85795V9H54.0845Z" fill="black"/>
</svg>
