<svg width="5" height="10" viewBox="0 0 5 10" fill="none" xmlns="http://www.w3.org/2000/svg">
<path d="M3.83523 3.45455V4.30682H0.306818V3.45455H3.83523ZM1.36364 10V2.55114C1.36364 2.17614 1.4517 1.86364 1.62784 1.61364C1.80398 1.36364 2.03267 1.17614 2.31392 1.05114C2.59517 0.926136 2.89205 0.863636 3.20455 0.863636C3.4517 0.863636 3.65341 0.883522 3.80966 0.923295C3.96591 0.963068 4.08239 1 4.15909 1.03409L3.86932 1.90341C3.81818 1.88636 3.74716 1.86506 3.65625 1.83949C3.56818 1.81392 3.4517 1.80114 3.30682 1.80114C2.97443 1.80114 2.73438 1.88494 2.58665 2.05256C2.44176 2.22017 2.36932 2.46591 2.36932 2.78977V10H1.36364Z" fill="black"/>
</svg>
