<svg width="50" height="12" viewBox="0 0 50 12" fill="none" xmlns="http://www.w3.org/2000/svg">
<path d="M0.0568182 9V0.272727H5.28977V1.21023H1.11364V4.15909H4.89773V5.09659H1.11364V9H0.0568182ZM9.22727 9.13636C8.59659 9.13636 8.05256 8.99716 7.59517 8.71875C7.14062 8.4375 6.78977 8.04545 6.54261 7.54261C6.2983 7.03693 6.17614 6.44886 6.17614 5.77841C6.17614 5.10795 6.2983 4.51705 6.54261 4.00568C6.78977 3.49148 7.13352 3.09091 7.57386 2.80398C8.01705 2.5142 8.53409 2.36932 9.125 2.36932C9.46591 2.36932 9.80256 2.42614 10.1349 2.53977C10.4673 2.65341 10.7699 2.83807 11.0426 3.09375C11.3153 3.34659 11.5327 3.68182 11.6946 4.09943C11.8565 4.51705 11.9375 5.03125 11.9375 5.64205V6.06818H6.89205V5.19886H10.9148C10.9148 4.82955 10.8409 4.5 10.6932 4.21023C10.5483 3.92045 10.3409 3.69176 10.071 3.52415C9.80398 3.35653 9.48864 3.27273 9.125 3.27273C8.72443 3.27273 8.37784 3.37216 8.08523 3.57102C7.79545 3.76705 7.57244 4.02273 7.41619 4.33807C7.25994 4.65341 7.18182 4.99148 7.18182 5.35227V5.93182C7.18182 6.42614 7.26705 6.84517 7.4375 7.18892C7.6108 7.52983 7.85085 7.78977 8.15767 7.96875C8.46449 8.14489 8.82102 8.23295 9.22727 8.23295C9.49148 8.23295 9.73011 8.19602 9.94318 8.12216C10.1591 8.04545 10.3452 7.93182 10.5014 7.78125C10.6577 7.62784 10.7784 7.4375 10.8636 7.21023L11.8352 7.48295C11.733 7.8125 11.5611 8.10227 11.3196 8.35227C11.0781 8.59943 10.7798 8.79261 10.4247 8.93182C10.0696 9.06818 9.67045 9.13636 9.22727 9.13636ZM13.6037 9V0.272727H14.6094V3.49432H14.6946C14.7685 3.38068 14.8707 3.2358 15.0014 3.05966C15.1349 2.88068 15.3253 2.72159 15.5724 2.58239C15.8224 2.44034 16.1605 2.36932 16.5866 2.36932C17.1378 2.36932 17.6236 2.5071 18.044 2.78267C18.4645 3.05824 18.7926 3.44886 19.0284 3.95455C19.2642 4.46023 19.3821 5.05682 19.3821 5.74432C19.3821 6.4375 19.2642 7.03835 19.0284 7.54688C18.7926 8.05256 18.4659 8.4446 18.0483 8.72301C17.6307 8.99858 17.1491 9.13636 16.6037 9.13636C16.1832 9.13636 15.8466 9.06676 15.5938 8.92756C15.3409 8.78551 15.1463 8.625 15.0099 8.44602C14.8736 8.2642 14.7685 8.11364 14.6946 7.99432H14.5753V9H13.6037ZM14.5923 5.72727C14.5923 6.22159 14.6648 6.65767 14.8097 7.03551C14.9545 7.41051 15.1662 7.70455 15.4446 7.91761C15.723 8.12784 16.0639 8.23295 16.4673 8.23295C16.8878 8.23295 17.2386 8.12216 17.5199 7.90057C17.804 7.67614 18.017 7.375 18.1591 6.99716C18.304 6.61648 18.3764 6.19318 18.3764 5.72727C18.3764 5.26705 18.3054 4.85227 18.1634 4.48295C18.0241 4.1108 17.8125 3.81676 17.5284 3.60085C17.2472 3.3821 16.8935 3.27273 16.4673 3.27273C16.0582 3.27273 15.7145 3.37642 15.4361 3.58381C15.1577 3.78835 14.9474 4.07528 14.8054 4.4446C14.6634 4.81108 14.5923 5.23864 14.5923 5.72727ZM20.9205 9V2.45455H21.892V3.44318H21.9602C22.0795 3.11932 22.2955 2.85653 22.608 2.65483C22.9205 2.45312 23.2727 2.35227 23.6648 2.35227C23.7386 2.35227 23.831 2.35369 23.9418 2.35653C24.0526 2.35937 24.1364 2.36364 24.1932 2.36932V3.39205C24.1591 3.38352 24.081 3.37074 23.9588 3.35369C23.8395 3.33381 23.7131 3.32386 23.5795 3.32386C23.2614 3.32386 22.9773 3.39062 22.7273 3.52415C22.4801 3.65483 22.2841 3.83665 22.1392 4.0696C21.9972 4.29972 21.9261 4.5625 21.9261 4.85795V9H20.9205ZM29.5103 6.32386V2.45455H30.516V9H29.5103V7.89205H29.4421C29.2887 8.22443 29.0501 8.5071 28.7262 8.74006C28.4023 8.97017 27.9933 9.08523 27.4989 9.08523C27.0898 9.08523 26.7262 8.99574 26.408 8.81676C26.0898 8.63494 25.8398 8.36222 25.658 7.99858C25.4762 7.6321 25.3853 7.17045 25.3853 6.61364V2.45455H26.391V6.54545C26.391 7.02273 26.5245 7.40341 26.7915 7.6875C27.0614 7.97159 27.4052 8.11364 27.8228 8.11364C28.0728 8.11364 28.3271 8.04972 28.5856 7.92188C28.8469 7.79403 29.0657 7.59801 29.2418 7.33381C29.4208 7.0696 29.5103 6.73295 29.5103 6.32386ZM34.2841 9.15341C33.8693 9.15341 33.4929 9.07528 33.1548 8.91903C32.8168 8.75994 32.5483 8.53125 32.3494 8.23295C32.1506 7.93182 32.0511 7.56818 32.0511 7.14205C32.0511 6.76705 32.125 6.46307 32.2727 6.23011C32.4205 5.99432 32.6179 5.80966 32.8651 5.67614C33.1122 5.54261 33.3849 5.44318 33.6832 5.37784C33.9844 5.30966 34.2869 5.25568 34.5909 5.21591C34.9886 5.16477 35.3111 5.12642 35.5582 5.10085C35.8082 5.07244 35.9901 5.02557 36.1037 4.96023C36.2202 4.89489 36.2784 4.78125 36.2784 4.61932V4.58523C36.2784 4.16477 36.1634 3.83807 35.9332 3.60511C35.706 3.37216 35.3608 3.25568 34.8977 3.25568C34.4176 3.25568 34.0412 3.3608 33.7685 3.57102C33.4957 3.78125 33.304 4.00568 33.1932 4.24432L32.2386 3.90341C32.4091 3.50568 32.6364 3.19602 32.9205 2.97443C33.2074 2.75 33.5199 2.59375 33.858 2.50568C34.1989 2.41477 34.5341 2.36932 34.8636 2.36932C35.0739 2.36932 35.3153 2.39489 35.5881 2.44602C35.8636 2.49432 36.1293 2.59517 36.3849 2.74858C36.6435 2.90199 36.858 3.13352 37.0284 3.44318C37.1989 3.75284 37.2841 4.16761 37.2841 4.6875V9H36.2784V8.11364H36.2273C36.1591 8.25568 36.0455 8.40767 35.8864 8.5696C35.7273 8.73153 35.5156 8.86932 35.2514 8.98295C34.9872 9.09659 34.6648 9.15341 34.2841 9.15341ZM34.4375 8.25C34.8352 8.25 35.1705 8.17188 35.4432 8.01562C35.7188 7.85938 35.9261 7.65767 36.0653 7.41051C36.2074 7.16335 36.2784 6.90341 36.2784 6.63068V5.71023C36.2358 5.76136 36.142 5.80824 35.9972 5.85085C35.8551 5.89062 35.6903 5.92614 35.5028 5.95739C35.3182 5.9858 35.1378 6.01136 34.9616 6.03409C34.7884 6.05398 34.6477 6.07102 34.5398 6.08523C34.2784 6.11932 34.0341 6.17472 33.8068 6.25142C33.5824 6.32528 33.4006 6.4375 33.2614 6.58807C33.125 6.7358 33.0568 6.9375 33.0568 7.19318C33.0568 7.54261 33.1861 7.80682 33.4446 7.9858C33.706 8.16193 34.0369 8.25 34.4375 8.25ZM39.1197 9V2.45455H40.0913V3.44318H40.1594C40.2788 3.11932 40.4947 2.85653 40.8072 2.65483C41.1197 2.45312 41.4719 2.35227 41.864 2.35227C41.9379 2.35227 42.0302 2.35369 42.141 2.35653C42.2518 2.35937 42.3356 2.36364 42.3924 2.36932V3.39205C42.3583 3.38352 42.2802 3.37074 42.158 3.35369C42.0387 3.33381 41.9123 3.32386 41.7788 3.32386C41.4606 3.32386 41.1765 3.39062 40.9265 3.52415C40.6793 3.65483 40.4833 3.83665 40.3384 4.0696C40.1964 4.29972 40.1254 4.5625 40.1254 4.85795V9H39.1197ZM44.4315 11.4545C44.261 11.4545 44.109 11.4403 43.9755 11.4119C43.842 11.3864 43.7496 11.3608 43.6985 11.3352L43.9542 10.4489C44.1985 10.5114 44.4144 10.5341 44.6019 10.517C44.7894 10.5 44.9556 10.4162 45.1005 10.2656C45.2482 10.1179 45.3832 9.87784 45.5053 9.54545L45.6928 9.03409L43.2724 2.45455H44.3633L46.1701 7.67045H46.2383L48.0451 2.45455H49.136L46.3576 9.95455C46.2326 10.2926 46.0778 10.5724 45.8931 10.794C45.7085 11.0185 45.494 11.1847 45.2496 11.2926C45.0082 11.4006 44.7354 11.4545 44.4315 11.4545Z" fill="black"/>
</svg>
