<svg width="7" height="10" viewBox="0 0 7 10" fill="none" xmlns="http://www.w3.org/2000/svg">
<path d="M3.5625 9.59091C3.0767 9.59091 2.65909 9.52841 2.30966 9.40341C1.96023 9.28125 1.66903 9.11932 1.43608 8.91761C1.20597 8.71875 1.02273 8.50568 0.886364 8.27841L1.6875 7.71591C1.77841 7.83523 1.89347 7.97159 2.03267 8.125C2.17188 8.28125 2.36222 8.41619 2.60369 8.52983C2.84801 8.64631 3.16761 8.70455 3.5625 8.70455C4.09091 8.70455 4.52699 8.5767 4.87074 8.32102C5.21449 8.06534 5.38636 7.66477 5.38636 7.11932V5.78977H5.30114C5.22727 5.90909 5.12216 6.05682 4.9858 6.23295C4.85227 6.40625 4.65909 6.56108 4.40625 6.69744C4.15625 6.83097 3.81818 6.89773 3.39205 6.89773C2.86364 6.89773 2.3892 6.77273 1.96875 6.52273C1.55114 6.27273 1.22017 5.90909 0.975852 5.43182C0.734375 4.95455 0.613636 4.375 0.613636 3.69318C0.613636 3.02273 0.731534 2.43892 0.96733 1.94176C1.20313 1.44176 1.53125 1.0554 1.9517 0.78267C2.37216 0.507102 2.85795 0.369318 3.40909 0.369318C3.83523 0.369318 4.1733 0.440341 4.4233 0.582386C4.67614 0.721591 4.86932 0.880682 5.00284 1.05966C5.1392 1.2358 5.24432 1.38068 5.31818 1.49432H5.42045V0.454545H6.39205V7.1875C6.39205 7.75 6.2642 8.20739 6.00852 8.55966C5.75568 8.91477 5.41477 9.17472 4.9858 9.33949C4.55966 9.5071 4.08523 9.59091 3.5625 9.59091ZM3.52841 5.99432C3.93182 5.99432 4.27273 5.90199 4.55114 5.71733C4.82955 5.53267 5.04119 5.26705 5.18608 4.92045C5.33097 4.57386 5.40341 4.15909 5.40341 3.67614C5.40341 3.20455 5.33239 2.78835 5.19034 2.42756C5.0483 2.06676 4.83807 1.78409 4.55966 1.57955C4.28125 1.375 3.9375 1.27273 3.52841 1.27273C3.10227 1.27273 2.74716 1.38068 2.46307 1.59659C2.18182 1.8125 1.97017 2.10227 1.82812 2.46591C1.68892 2.82955 1.61932 3.23295 1.61932 3.67614C1.61932 4.13068 1.69034 4.53267 1.83239 4.8821C1.97727 5.22869 2.19034 5.50142 2.47159 5.70028C2.75568 5.89631 3.10795 5.99432 3.52841 5.99432Z" fill="black"/>
</svg>
