<svg width="7" height="9" viewBox="0 0 7 9" fill="none" xmlns="http://www.w3.org/2000/svg">
<path d="M1.92614 5.0625V9H0.920455V0.272727H1.92614V3.47727H2.01136C2.16477 3.1392 2.39489 2.87074 2.7017 2.67188C3.01136 2.47017 3.4233 2.36932 3.9375 2.36932C4.38352 2.36932 4.77415 2.45881 5.10938 2.63778C5.4446 2.81392 5.70455 3.08523 5.8892 3.4517C6.0767 3.81534 6.17045 4.27841 6.17045 4.84091V9H5.16477V4.90909C5.16477 4.3892 5.02983 3.98722 4.75994 3.70312C4.4929 3.41619 4.12216 3.27273 3.64773 3.27273C3.31818 3.27273 3.02273 3.34233 2.76136 3.48153C2.50284 3.62074 2.2983 3.82386 2.14773 4.09091C2 4.35795 1.92614 4.68182 1.92614 5.0625Z" fill="black"/>
</svg>
