<svg width="45" height="12" viewBox="0 0 45 12" fill="none" xmlns="http://www.w3.org/2000/svg">
<path d="M4.39773 0.272727H5.45455V6.51136C5.45455 7.06818 5.35227 7.54119 5.14773 7.9304C4.94318 8.3196 4.65483 8.61506 4.28267 8.81676C3.91051 9.01847 3.47159 9.11932 2.96591 9.11932C2.48864 9.11932 2.06392 9.03267 1.69176 8.85938C1.3196 8.68324 1.02699 8.43324 0.81392 8.10938C0.600852 7.78551 0.494318 7.40057 0.494318 6.95455H1.53409C1.53409 7.2017 1.59517 7.41761 1.71733 7.60227C1.84233 7.78409 2.01278 7.92614 2.22869 8.02841C2.4446 8.13068 2.69034 8.18182 2.96591 8.18182C3.26989 8.18182 3.52841 8.1179 3.74148 7.99006C3.95455 7.86222 4.11648 7.67472 4.22727 7.42756C4.34091 7.17756 4.39773 6.87216 4.39773 6.51136V0.272727ZM9.36222 9.15341C8.94744 9.15341 8.57102 9.07528 8.23295 8.91903C7.89489 8.75994 7.62642 8.53125 7.42756 8.23295C7.22869 7.93182 7.12926 7.56818 7.12926 7.14205C7.12926 6.76705 7.20313 6.46307 7.35085 6.23011C7.49858 5.99432 7.69602 5.80966 7.94318 5.67614C8.19034 5.54261 8.46307 5.44318 8.76136 5.37784C9.0625 5.30966 9.36506 5.25568 9.66903 5.21591C10.0668 5.16477 10.3892 5.12642 10.6364 5.10085C10.8864 5.07244 11.0682 5.02557 11.1818 4.96023C11.2983 4.89489 11.3565 4.78125 11.3565 4.61932V4.58523C11.3565 4.16477 11.2415 3.83807 11.0114 3.60511C10.7841 3.37216 10.4389 3.25568 9.97585 3.25568C9.49574 3.25568 9.11932 3.3608 8.84659 3.57102C8.57386 3.78125 8.3821 4.00568 8.27131 4.24432L7.31676 3.90341C7.48722 3.50568 7.71449 3.19602 7.99858 2.97443C8.28551 2.75 8.59801 2.59375 8.93608 2.50568C9.27699 2.41477 9.61222 2.36932 9.94176 2.36932C10.152 2.36932 10.3935 2.39489 10.6662 2.44602C10.9418 2.49432 11.2074 2.59517 11.4631 2.74858C11.7216 2.90199 11.9361 3.13352 12.1065 3.44318C12.277 3.75284 12.3622 4.16761 12.3622 4.6875V9H11.3565V8.11364H11.3054C11.2372 8.25568 11.1236 8.40767 10.9645 8.5696C10.8054 8.73153 10.5938 8.86932 10.3295 8.98295C10.0653 9.09659 9.7429 9.15341 9.36222 9.15341ZM9.51562 8.25C9.91335 8.25 10.2486 8.17188 10.5213 8.01562C10.7969 7.85938 11.0043 7.65767 11.1435 7.41051C11.2855 7.16335 11.3565 6.90341 11.3565 6.63068V5.71023C11.3139 5.76136 11.2202 5.80824 11.0753 5.85085C10.9332 5.89062 10.7685 5.92614 10.581 5.95739C10.3963 5.9858 10.2159 6.01136 10.0398 6.03409C9.86648 6.05398 9.72585 6.07102 9.6179 6.08523C9.35653 6.11932 9.11222 6.17472 8.88494 6.25142C8.66051 6.32528 8.47869 6.4375 8.33949 6.58807C8.20313 6.7358 8.13494 6.9375 8.13494 7.19318C8.13494 7.54261 8.2642 7.80682 8.52273 7.9858C8.78409 8.16193 9.11506 8.25 9.51562 8.25ZM15.2035 5.0625V9H14.1978V2.45455H15.1694V3.47727H15.2546C15.408 3.14489 15.641 2.87784 15.9535 2.67614C16.266 2.47159 16.6694 2.36932 17.1637 2.36932C17.6069 2.36932 17.9947 2.46023 18.3271 2.64205C18.6594 2.82102 18.918 3.09375 19.1026 3.46023C19.2873 3.82386 19.3796 4.28409 19.3796 4.84091V9H18.3739V4.90909C18.3739 4.39489 18.2404 3.99432 17.9734 3.70739C17.7063 3.41761 17.3398 3.27273 16.8739 3.27273C16.5529 3.27273 16.266 3.34233 16.0131 3.48153C15.7631 3.62074 15.5657 3.82386 15.4208 4.09091C15.2759 4.35795 15.2035 4.68182 15.2035 5.0625ZM25.3423 6.32386V2.45455H26.348V9H25.3423V7.89205H25.2741C25.1207 8.22443 24.8821 8.5071 24.5582 8.74006C24.2344 8.97017 23.8253 9.08523 23.331 9.08523C22.9219 9.08523 22.5582 8.99574 22.2401 8.81676C21.9219 8.63494 21.6719 8.36222 21.4901 7.99858C21.3082 7.6321 21.2173 7.17045 21.2173 6.61364V2.45455H22.223V6.54545C22.223 7.02273 22.3565 7.40341 22.6236 7.6875C22.8935 7.97159 23.2372 8.11364 23.6548 8.11364C23.9048 8.11364 24.1591 8.04972 24.4176 7.92188C24.679 7.79403 24.8977 7.59801 25.0739 7.33381C25.2528 7.0696 25.3423 6.73295 25.3423 6.32386ZM30.1161 9.15341C29.7013 9.15341 29.3249 9.07528 28.9869 8.91903C28.6488 8.75994 28.3803 8.53125 28.1815 8.23295C27.9826 7.93182 27.8832 7.56818 27.8832 7.14205C27.8832 6.76705 27.957 6.46307 28.1048 6.23011C28.2525 5.99432 28.4499 5.80966 28.6971 5.67614C28.9442 5.54261 29.217 5.44318 29.5153 5.37784C29.8164 5.30966 30.119 5.25568 30.4229 5.21591C30.8207 5.16477 31.1431 5.12642 31.3903 5.10085C31.6403 5.07244 31.8221 5.02557 31.9357 4.96023C32.0522 4.89489 32.1104 4.78125 32.1104 4.61932V4.58523C32.1104 4.16477 31.9954 3.83807 31.7653 3.60511C31.538 3.37216 31.1928 3.25568 30.7298 3.25568C30.2496 3.25568 29.8732 3.3608 29.6005 3.57102C29.3278 3.78125 29.136 4.00568 29.0252 4.24432L28.0707 3.90341C28.2411 3.50568 28.4684 3.19602 28.7525 2.97443C29.0394 2.75 29.3519 2.59375 29.69 2.50568C30.0309 2.41477 30.3661 2.36932 30.6957 2.36932C30.9059 2.36932 31.1474 2.39489 31.4201 2.44602C31.6957 2.49432 31.9613 2.59517 32.217 2.74858C32.4755 2.90199 32.69 3.13352 32.8604 3.44318C33.0309 3.75284 33.1161 4.16761 33.1161 4.6875V9H32.1104V8.11364H32.0593C31.9911 8.25568 31.8775 8.40767 31.7184 8.5696C31.5593 8.73153 31.3477 8.86932 31.0835 8.98295C30.8192 9.09659 30.4968 9.15341 30.1161 9.15341ZM30.2695 8.25C30.6673 8.25 31.0025 8.17188 31.2752 8.01562C31.5508 7.85938 31.7582 7.65767 31.8974 7.41051C32.0394 7.16335 32.1104 6.90341 32.1104 6.63068V5.71023C32.0678 5.76136 31.9741 5.80824 31.8292 5.85085C31.6871 5.89062 31.5224 5.92614 31.3349 5.95739C31.1502 5.9858 30.9698 6.01136 30.7937 6.03409C30.6204 6.05398 30.4798 6.07102 30.3718 6.08523C30.1104 6.11932 29.8661 6.17472 29.6388 6.25142C29.4144 6.32528 29.2326 6.4375 29.0934 6.58807C28.957 6.7358 28.8888 6.9375 28.8888 7.19318C28.8888 7.54261 29.0181 7.80682 29.2766 7.9858C29.538 8.16193 29.869 8.25 30.2695 8.25ZM34.9517 9V2.45455H35.9233V3.44318H35.9915C36.1108 3.11932 36.3267 2.85653 36.6392 2.65483C36.9517 2.45312 37.304 2.35227 37.696 2.35227C37.7699 2.35227 37.8622 2.35369 37.973 2.35653C38.0838 2.35937 38.1676 2.36364 38.2244 2.36932V3.39205C38.1903 3.38352 38.1122 3.37074 37.9901 3.35369C37.8707 3.33381 37.7443 3.32386 37.6108 3.32386C37.2926 3.32386 37.0085 3.39062 36.7585 3.52415C36.5114 3.65483 36.3153 3.83665 36.1705 4.0696C36.0284 4.29972 35.9574 4.5625 35.9574 4.85795V9H34.9517ZM40.2635 11.4545C40.093 11.4545 39.9411 11.4403 39.8075 11.4119C39.674 11.3864 39.5817 11.3608 39.5305 11.3352L39.7862 10.4489C40.0305 10.5114 40.2464 10.5341 40.4339 10.517C40.6214 10.5 40.7876 10.4162 40.9325 10.2656C41.0803 10.1179 41.2152 9.87784 41.3374 9.54545L41.5249 9.03409L39.1044 2.45455H40.1953L42.0021 7.67045H42.0703L43.8771 2.45455H44.968L42.1896 9.95455C42.0646 10.2926 41.9098 10.5724 41.7251 10.794C41.5405 11.0185 41.326 11.1847 41.0817 11.2926C40.8402 11.4006 40.5675 11.4545 40.2635 11.4545Z" fill="black"/>
</svg>
