<svg width="6" height="10" viewBox="0 0 6 10" fill="none" xmlns="http://www.w3.org/2000/svg">
<path d="M4.39773 0.272727H5.45455V6.51136C5.45455 7.06818 5.35227 7.54119 5.14773 7.9304C4.94318 8.3196 4.65483 8.61506 4.28267 8.81676C3.91051 9.01847 3.47159 9.11932 2.96591 9.11932C2.48864 9.11932 2.06392 9.03267 1.69176 8.85938C1.3196 8.68324 1.02699 8.43324 0.81392 8.10938C0.600852 7.78551 0.494318 7.40057 0.494318 6.95455H1.53409C1.53409 7.2017 1.59517 7.41761 1.71733 7.60227C1.84233 7.78409 2.01278 7.92614 2.22869 8.02841C2.4446 8.13068 2.69034 8.18182 2.96591 8.18182C3.26989 8.18182 3.52841 8.1179 3.74148 7.99006C3.95455 7.86222 4.11648 7.67472 4.22727 7.42756C4.34091 7.17756 4.39773 6.87216 4.39773 6.51136V0.272727Z" fill="black"/>
</svg>
