<svg width="23" height="12" viewBox="0 0 23 12" fill="none" xmlns="http://www.w3.org/2000/svg">
<path d="M4.39773 0.272727H5.45455V6.51136C5.45455 7.06818 5.35227 7.54119 5.14773 7.9304C4.94318 8.3196 4.65483 8.61506 4.28267 8.81676C3.91051 9.01847 3.47159 9.11932 2.96591 9.11932C2.48864 9.11932 2.06392 9.03267 1.69176 8.85938C1.3196 8.68324 1.02699 8.43324 0.81392 8.10938C0.600852 7.78551 0.494318 7.40057 0.494318 6.95455H1.53409C1.53409 7.2017 1.59517 7.41761 1.71733 7.60227C1.84233 7.78409 2.01278 7.92614 2.22869 8.02841C2.4446 8.13068 2.69034 8.18182 2.96591 8.18182C3.26989 8.18182 3.52841 8.1179 3.74148 7.99006C3.95455 7.86222 4.11648 7.67472 4.22727 7.42756C4.34091 7.17756 4.39773 6.87216 4.39773 6.51136V0.272727ZM11.5611 6.32386V2.45455H12.5668V9H11.5611V7.89205H11.4929C11.3395 8.22443 11.1009 8.5071 10.777 8.74006C10.4531 8.97017 10.044 9.08523 9.54972 9.08523C9.14062 9.08523 8.77699 8.99574 8.45881 8.81676C8.14063 8.63494 7.89063 8.36222 7.70881 7.99858C7.52699 7.6321 7.43608 7.17045 7.43608 6.61364V2.45455H8.44176V6.54545C8.44176 7.02273 8.57528 7.40341 8.84233 7.6875C9.11222 7.97159 9.45597 8.11364 9.87358 8.11364C10.1236 8.11364 10.3778 8.04972 10.6364 7.92188C10.8977 7.79403 11.1165 7.59801 11.2926 7.33381C11.4716 7.0696 11.5611 6.73295 11.5611 6.32386ZM15.4144 0.272727V9H14.4087V0.272727H15.4144ZM17.9041 11.4545C17.7337 11.4545 17.5817 11.4403 17.4482 11.4119C17.3146 11.3864 17.2223 11.3608 17.1712 11.3352L17.4268 10.4489C17.6712 10.5114 17.8871 10.5341 18.0746 10.517C18.2621 10.5 18.4283 10.4162 18.5732 10.2656C18.7209 10.1179 18.8558 9.87784 18.978 9.54545L19.1655 9.03409L16.745 2.45455H17.8359L19.6428 7.67045H19.7109L21.5178 2.45455H22.6087L19.8303 9.95455C19.7053 10.2926 19.5504 10.5724 19.3658 10.794C19.1811 11.0185 18.9666 11.1847 18.7223 11.2926C18.4808 11.4006 18.2081 11.4545 17.9041 11.4545Z" fill="black"/>
</svg>
