<svg width="27" height="10" viewBox="0 0 27 10" fill="none" xmlns="http://www.w3.org/2000/svg">
<path d="M4.39773 0.272727H5.45455V6.51136C5.45455 7.06818 5.35227 7.54119 5.14773 7.9304C4.94318 8.3196 4.65483 8.61506 4.28267 8.81676C3.91051 9.01847 3.47159 9.11932 2.96591 9.11932C2.48864 9.11932 2.06392 9.03267 1.69176 8.85938C1.3196 8.68324 1.02699 8.43324 0.81392 8.10938C0.600852 7.78551 0.494318 7.40057 0.494318 6.95455H1.53409C1.53409 7.2017 1.59517 7.41761 1.71733 7.60227C1.84233 7.78409 2.01278 7.92614 2.22869 8.02841C2.4446 8.13068 2.69034 8.18182 2.96591 8.18182C3.26989 8.18182 3.52841 8.1179 3.74148 7.99006C3.95455 7.86222 4.11648 7.67472 4.22727 7.42756C4.34091 7.17756 4.39773 6.87216 4.39773 6.51136V0.272727ZM11.5611 6.32386V2.45455H12.5668V9H11.5611V7.89205H11.4929C11.3395 8.22443 11.1009 8.5071 10.777 8.74006C10.4531 8.97017 10.044 9.08523 9.54972 9.08523C9.14062 9.08523 8.77699 8.99574 8.45881 8.81676C8.14063 8.63494 7.89063 8.36222 7.70881 7.99858C7.52699 7.6321 7.43608 7.17045 7.43608 6.61364V2.45455H8.44176V6.54545C8.44176 7.02273 8.57528 7.40341 8.84233 7.6875C9.11222 7.97159 9.45597 8.11364 9.87358 8.11364C10.1236 8.11364 10.3778 8.04972 10.6364 7.92188C10.8977 7.79403 11.1165 7.59801 11.2926 7.33381C11.4716 7.0696 11.5611 6.73295 11.5611 6.32386ZM15.4144 5.0625V9H14.4087V2.45455H15.3803V3.47727H15.4656C15.619 3.14489 15.8519 2.87784 16.1644 2.67614C16.4769 2.47159 16.8803 2.36932 17.3746 2.36932C17.8178 2.36932 18.2056 2.46023 18.538 2.64205C18.8704 2.82102 19.1289 3.09375 19.3136 3.46023C19.4982 3.82386 19.5906 4.28409 19.5906 4.84091V9H18.5849V4.90909C18.5849 4.39489 18.4513 3.99432 18.1843 3.70739C17.9173 3.41761 17.5508 3.27273 17.0849 3.27273C16.7638 3.27273 16.4769 3.34233 16.2241 3.48153C15.9741 3.62074 15.7766 3.82386 15.6317 4.09091C15.4869 4.35795 15.4144 4.68182 15.4144 5.0625ZM24.1726 9.13636C23.5419 9.13636 22.9979 8.99716 22.5405 8.71875C22.0859 8.4375 21.7351 8.04545 21.4879 7.54261C21.2436 7.03693 21.1214 6.44886 21.1214 5.77841C21.1214 5.10795 21.2436 4.51705 21.4879 4.00568C21.7351 3.49148 22.0788 3.09091 22.5192 2.80398C22.9624 2.5142 23.4794 2.36932 24.0703 2.36932C24.4112 2.36932 24.7479 2.42614 25.0803 2.53977C25.4126 2.65341 25.7152 2.83807 25.9879 3.09375C26.2607 3.34659 26.478 3.68182 26.6399 4.09943C26.8018 4.51705 26.8828 5.03125 26.8828 5.64205V6.06818H21.8374V5.19886H25.8601C25.8601 4.82955 25.7862 4.5 25.6385 4.21023C25.4936 3.92045 25.2862 3.69176 25.0163 3.52415C24.7493 3.35653 24.4339 3.27273 24.0703 3.27273C23.6697 3.27273 23.3232 3.37216 23.0305 3.57102C22.7408 3.76705 22.5178 4.02273 22.3615 4.33807C22.2053 4.65341 22.1271 4.99148 22.1271 5.35227V5.93182C22.1271 6.42614 22.2124 6.84517 22.3828 7.18892C22.5561 7.52983 22.7962 7.78977 23.103 7.96875C23.4098 8.14489 23.7663 8.23295 24.1726 8.23295C24.4368 8.23295 24.6754 8.19602 24.8885 8.12216C25.1044 8.04545 25.2905 7.93182 25.4467 7.78125C25.603 7.62784 25.7237 7.4375 25.8089 7.21023L26.7805 7.48295C26.6783 7.8125 26.5064 8.10227 26.2649 8.35227C26.0234 8.59943 25.7251 8.79261 25.37 8.93182C25.0149 9.06818 24.6158 9.13636 24.1726 9.13636Z" fill="black"/>
</svg>
