<svg width="34" height="10" viewBox="0 0 34 10" fill="none" xmlns="http://www.w3.org/2000/svg">
<path d="M0.0568182 0.272727H1.31818L4.28409 7.51705H4.38636L7.35227 0.272727H8.61364V9H7.625V2.36932H7.53977L4.8125 9H3.85795L1.13068 2.36932H1.04545V9H0.0568182V0.272727ZM12.5224 9.15341C12.1076 9.15341 11.7312 9.07528 11.3931 8.91903C11.055 8.75994 10.7866 8.53125 10.5877 8.23295C10.3888 7.93182 10.2894 7.56818 10.2894 7.14205C10.2894 6.76705 10.3633 6.46307 10.511 6.23011C10.6587 5.99432 10.8562 5.80966 11.1033 5.67614C11.3505 5.54261 11.6232 5.44318 11.9215 5.37784C12.2227 5.30966 12.5252 5.25568 12.8292 5.21591C13.2269 5.16477 13.5494 5.12642 13.7965 5.10085C14.0465 5.07244 14.2283 5.02557 14.342 4.96023C14.4585 4.89489 14.5167 4.78125 14.5167 4.61932V4.58523C14.5167 4.16477 14.4016 3.83807 14.1715 3.60511C13.9442 3.37216 13.5991 3.25568 13.136 3.25568C12.6559 3.25568 12.2795 3.3608 12.0067 3.57102C11.734 3.78125 11.5423 4.00568 11.4315 4.24432L10.4769 3.90341C10.6474 3.50568 10.8746 3.19602 11.1587 2.97443C11.4457 2.75 11.7582 2.59375 12.0962 2.50568C12.4371 2.41477 12.7724 2.36932 13.1019 2.36932C13.3121 2.36932 13.5536 2.39489 13.8263 2.44602C14.1019 2.49432 14.3675 2.59517 14.6232 2.74858C14.8817 2.90199 15.0962 3.13352 15.2667 3.44318C15.4371 3.75284 15.5224 4.16761 15.5224 4.6875V9H14.5167V8.11364H14.4656C14.3974 8.25568 14.2837 8.40767 14.1246 8.5696C13.9656 8.73153 13.7539 8.86932 13.4897 8.98295C13.2255 9.09659 12.9031 9.15341 12.5224 9.15341ZM12.6758 8.25C13.0735 8.25 13.4087 8.17188 13.6815 8.01562C13.957 7.85938 14.1644 7.65767 14.3036 7.41051C14.4457 7.16335 14.5167 6.90341 14.5167 6.63068V5.71023C14.4741 5.76136 14.3803 5.80824 14.2354 5.85085C14.0934 5.89062 13.9286 5.92614 13.7411 5.95739C13.5565 5.9858 13.3761 6.01136 13.1999 6.03409C13.0266 6.05398 12.886 6.07102 12.7781 6.08523C12.5167 6.11932 12.2724 6.17472 12.0451 6.25142C11.8207 6.32528 11.6388 6.4375 11.4996 6.58807C11.3633 6.7358 11.2951 6.9375 11.2951 7.19318C11.2951 7.54261 11.4244 7.80682 11.6829 7.9858C11.9442 8.16193 12.2752 8.25 12.6758 8.25ZM17.358 9V2.45455H18.3295V3.44318H18.3977C18.517 3.11932 18.733 2.85653 19.0455 2.65483C19.358 2.45312 19.7102 2.35227 20.1023 2.35227C20.1761 2.35227 20.2685 2.35369 20.3793 2.35653C20.4901 2.35937 20.5739 2.36364 20.6307 2.36932V3.39205C20.5966 3.38352 20.5185 3.37074 20.3963 3.35369C20.277 3.33381 20.1506 3.32386 20.017 3.32386C19.6989 3.32386 19.4148 3.39062 19.1648 3.52415C18.9176 3.65483 18.7216 3.83665 18.5767 4.0696C18.4347 4.29972 18.3636 4.5625 18.3636 4.85795V9H17.358ZM24.2827 9.13636C23.669 9.13636 23.1406 8.99148 22.6974 8.7017C22.2543 8.41193 21.9134 8.01278 21.6747 7.50426C21.4361 6.99574 21.3168 6.41477 21.3168 5.76136C21.3168 5.09659 21.4389 4.50994 21.6832 4.00142C21.9304 3.49006 22.2741 3.09091 22.7145 2.80398C23.1577 2.5142 23.6747 2.36932 24.2656 2.36932C24.7259 2.36932 25.1406 2.45455 25.5099 2.625C25.8793 2.79545 26.1818 3.03409 26.4176 3.34091C26.6534 3.64773 26.7997 4.00568 26.8565 4.41477H25.8509C25.7741 4.11648 25.6037 3.85227 25.3395 3.62216C25.0781 3.3892 24.7259 3.27273 24.2827 3.27273C23.8906 3.27273 23.5469 3.375 23.2514 3.57955C22.9588 3.78125 22.7301 4.06676 22.5653 4.43608C22.4034 4.80256 22.3224 5.23295 22.3224 5.72727C22.3224 6.23295 22.402 6.6733 22.5611 7.0483C22.723 7.4233 22.9503 7.71449 23.2429 7.92188C23.5384 8.12926 23.8849 8.23295 24.2827 8.23295C24.544 8.23295 24.7812 8.1875 24.9943 8.09659C25.2074 8.00568 25.3878 7.875 25.5355 7.70455C25.6832 7.53409 25.7884 7.32955 25.8509 7.09091H26.8565C26.7997 7.47727 26.6591 7.82528 26.4347 8.13494C26.2131 8.44176 25.919 8.68608 25.5526 8.8679C25.1889 9.04688 24.7656 9.13636 24.2827 9.13636ZM29.3324 5.0625V9H28.3267V0.272727H29.3324V3.47727H29.4176C29.571 3.1392 29.8011 2.87074 30.108 2.67188C30.4176 2.47017 30.8295 2.36932 31.3438 2.36932C31.7898 2.36932 32.1804 2.45881 32.5156 2.63778C32.8509 2.81392 33.1108 3.08523 33.2955 3.4517C33.483 3.81534 33.5767 4.27841 33.5767 4.84091V9H32.571V4.90909C32.571 4.3892 32.4361 3.98722 32.1662 3.70312C31.8991 3.41619 31.5284 3.27273 31.054 3.27273C30.7244 3.27273 30.429 3.34233 30.1676 3.48153C29.9091 3.62074 29.7045 3.82386 29.554 4.09091C29.4063 4.35795 29.3324 4.68182 29.3324 5.0625Z" fill="black"/>
</svg>
