<svg width="23" height="12" viewBox="0 0 23 12" fill="none" xmlns="http://www.w3.org/2000/svg">
<path d="M0.0568182 0.272727H1.31818L4.28409 7.51705H4.38636L7.35227 0.272727H8.61364V9H7.625V2.36932H7.53977L4.8125 9H3.85795L1.13068 2.36932H1.04545V9H0.0568182V0.272727ZM12.5224 9.15341C12.1076 9.15341 11.7312 9.07528 11.3931 8.91903C11.055 8.75994 10.7866 8.53125 10.5877 8.23295C10.3888 7.93182 10.2894 7.56818 10.2894 7.14205C10.2894 6.76705 10.3633 6.46307 10.511 6.23011C10.6587 5.99432 10.8562 5.80966 11.1033 5.67614C11.3505 5.54261 11.6232 5.44318 11.9215 5.37784C12.2227 5.30966 12.5252 5.25568 12.8292 5.21591C13.2269 5.16477 13.5494 5.12642 13.7965 5.10085C14.0465 5.07244 14.2283 5.02557 14.342 4.96023C14.4585 4.89489 14.5167 4.78125 14.5167 4.61932V4.58523C14.5167 4.16477 14.4016 3.83807 14.1715 3.60511C13.9442 3.37216 13.5991 3.25568 13.136 3.25568C12.6559 3.25568 12.2795 3.3608 12.0067 3.57102C11.734 3.78125 11.5423 4.00568 11.4315 4.24432L10.4769 3.90341C10.6474 3.50568 10.8746 3.19602 11.1587 2.97443C11.4457 2.75 11.7582 2.59375 12.0962 2.50568C12.4371 2.41477 12.7724 2.36932 13.1019 2.36932C13.3121 2.36932 13.5536 2.39489 13.8263 2.44602C14.1019 2.49432 14.3675 2.59517 14.6232 2.74858C14.8817 2.90199 15.0962 3.13352 15.2667 3.44318C15.4371 3.75284 15.5224 4.16761 15.5224 4.6875V9H14.5167V8.11364H14.4656C14.3974 8.25568 14.2837 8.40767 14.1246 8.5696C13.9656 8.73153 13.7539 8.86932 13.4897 8.98295C13.2255 9.09659 12.9031 9.15341 12.5224 9.15341ZM12.6758 8.25C13.0735 8.25 13.4087 8.17188 13.6815 8.01562C13.957 7.85938 14.1644 7.65767 14.3036 7.41051C14.4457 7.16335 14.5167 6.90341 14.5167 6.63068V5.71023C14.4741 5.76136 14.3803 5.80824 14.2354 5.85085C14.0934 5.89062 13.9286 5.92614 13.7411 5.95739C13.5565 5.9858 13.3761 6.01136 13.1999 6.03409C13.0266 6.05398 12.886 6.07102 12.7781 6.08523C12.5167 6.11932 12.2724 6.17472 12.0451 6.25142C11.8207 6.32528 11.6388 6.4375 11.4996 6.58807C11.3633 6.7358 11.2951 6.9375 11.2951 7.19318C11.2951 7.54261 11.4244 7.80682 11.6829 7.9858C11.9442 8.16193 12.2752 8.25 12.6758 8.25ZM17.7713 11.4545C17.6009 11.4545 17.4489 11.4403 17.3153 11.4119C17.1818 11.3864 17.0895 11.3608 17.0384 11.3352L17.294 10.4489C17.5384 10.5114 17.7543 10.5341 17.9418 10.517C18.1293 10.5 18.2955 10.4162 18.4403 10.2656C18.5881 10.1179 18.723 9.87784 18.8452 9.54545L19.0327 9.03409L16.6122 2.45455H17.7031L19.5099 7.67045H19.5781L21.3849 2.45455H22.4759L19.6974 9.95455C19.5724 10.2926 19.4176 10.5724 19.233 10.794C19.0483 11.0185 18.8338 11.1847 18.5895 11.2926C18.348 11.4006 18.0753 11.4545 17.7713 11.4545Z" fill="black"/>
</svg>
