<svg width="7" height="7" viewBox="0 0 7 7" fill="none" xmlns="http://www.w3.org/2000/svg">
<path d="M1.92614 3.0625V7H0.920455V0.454545H1.89205V1.47727H1.97727C2.13068 1.14489 2.36364 0.877841 2.67614 0.676136C2.98864 0.471591 3.39205 0.369318 3.88636 0.369318C4.32955 0.369318 4.71733 0.460227 5.04972 0.642045C5.3821 0.821023 5.64063 1.09375 5.82528 1.46023C6.00994 1.82386 6.10227 2.28409 6.10227 2.84091V7H5.09659V2.90909C5.09659 2.39489 4.96307 1.99432 4.69602 1.70739C4.42898 1.41761 4.0625 1.27273 3.59659 1.27273C3.27557 1.27273 2.98864 1.34233 2.7358 1.48153C2.4858 1.62074 2.28835 1.82386 2.14347 2.09091C1.99858 2.35795 1.92614 2.68182 1.92614 3.0625Z" fill="black"/>
</svg>
