<svg width="58" height="10" viewBox="0 0 58 10" fill="none" xmlns="http://www.w3.org/2000/svg">
<path d="M6.97727 0.272727V9H5.95455L1.19886 2.14773H1.11364V9H0.0568182V0.272727H1.07955L5.85227 7.14205H5.9375V0.272727H6.97727ZM11.6147 9.13636C11.0238 9.13636 10.5053 8.99574 10.0593 8.71449C9.61612 8.43324 9.26953 8.03977 9.01953 7.53409C8.77237 7.02841 8.64879 6.4375 8.64879 5.76136C8.64879 5.07955 8.77237 4.48437 9.01953 3.97585C9.26953 3.46733 9.61612 3.07244 10.0593 2.79119C10.5053 2.50994 11.0238 2.36932 11.6147 2.36932C12.2056 2.36932 12.7227 2.50994 13.1658 2.79119C13.6119 3.07244 13.9585 3.46733 14.2056 3.97585C14.4556 4.48437 14.5806 5.07955 14.5806 5.76136C14.5806 6.4375 14.4556 7.02841 14.2056 7.53409C13.9585 8.03977 13.6119 8.43324 13.1658 8.71449C12.7227 8.99574 12.2056 9.13636 11.6147 9.13636ZM11.6147 8.23295C12.0636 8.23295 12.4329 8.1179 12.7227 7.88778C13.0124 7.65767 13.2269 7.35511 13.3661 6.98011C13.5053 6.60511 13.5749 6.19886 13.5749 5.76136C13.5749 5.32386 13.5053 4.91619 13.3661 4.53835C13.2269 4.16051 13.0124 3.85511 12.7227 3.62216C12.4329 3.3892 12.0636 3.27273 11.6147 3.27273C11.1658 3.27273 10.7965 3.3892 10.5067 3.62216C10.217 3.85511 10.0025 4.16051 9.86328 4.53835C9.72408 4.91619 9.65447 5.32386 9.65447 5.76136C9.65447 6.19886 9.72408 6.60511 9.86328 6.98011C10.0025 7.35511 10.217 7.65767 10.5067 7.88778C10.7965 8.1179 11.1658 8.23295 11.6147 8.23295ZM21.2337 2.45455L18.8132 9H17.7905L15.37 2.45455H16.4609L18.2678 7.67045H18.3359L20.1428 2.45455H21.2337ZM25.071 9.13636C24.4403 9.13636 23.8963 8.99716 23.4389 8.71875C22.9844 8.4375 22.6335 8.04545 22.3864 7.54261C22.142 7.03693 22.0199 6.44886 22.0199 5.77841C22.0199 5.10795 22.142 4.51705 22.3864 4.00568C22.6335 3.49148 22.9773 3.09091 23.4176 2.80398C23.8608 2.5142 24.3778 2.36932 24.9688 2.36932C25.3097 2.36932 25.6463 2.42614 25.9787 2.53977C26.3111 2.65341 26.6136 2.83807 26.8864 3.09375C27.1591 3.34659 27.3764 3.68182 27.5384 4.09943C27.7003 4.51705 27.7812 5.03125 27.7812 5.64205V6.06818H22.7358V5.19886H26.7585C26.7585 4.82955 26.6847 4.5 26.5369 4.21023C26.392 3.92045 26.1847 3.69176 25.9148 3.52415C25.6477 3.35653 25.3324 3.27273 24.9688 3.27273C24.5682 3.27273 24.2216 3.37216 23.929 3.57102C23.6392 3.76705 23.4162 4.02273 23.2599 4.33807C23.1037 4.65341 23.0256 4.99148 23.0256 5.35227V5.93182C23.0256 6.42614 23.1108 6.84517 23.2812 7.18892C23.4545 7.52983 23.6946 7.78977 24.0014 7.96875C24.3082 8.14489 24.6648 8.23295 25.071 8.23295C25.3352 8.23295 25.5739 8.19602 25.7869 8.12216C26.0028 8.04545 26.1889 7.93182 26.3452 7.78125C26.5014 7.62784 26.6222 7.4375 26.7074 7.21023L27.679 7.48295C27.5767 7.8125 27.4048 8.10227 27.1634 8.35227C26.9219 8.59943 26.6236 8.79261 26.2685 8.93182C25.9134 9.06818 25.5142 9.13636 25.071 9.13636ZM29.3111 9V2.45455H30.2827V3.47727H30.3679C30.5043 3.12784 30.7244 2.85653 31.0284 2.66335C31.3324 2.46733 31.6974 2.36932 32.1236 2.36932C32.5554 2.36932 32.9148 2.46733 33.2017 2.66335C33.4915 2.85653 33.7173 3.12784 33.8793 3.47727H33.9474C34.1151 3.1392 34.3665 2.87074 34.7017 2.67188C35.0369 2.47017 35.4389 2.36932 35.9077 2.36932C36.4929 2.36932 36.9716 2.55256 37.3438 2.91903C37.7159 3.28267 37.902 3.84943 37.902 4.61932V9H36.8963V4.61932C36.8963 4.13636 36.7642 3.79119 36.5 3.58381C36.2358 3.37642 35.9247 3.27273 35.5668 3.27273C35.1065 3.27273 34.75 3.41193 34.4972 3.69034C34.2443 3.96591 34.1179 4.31534 34.1179 4.73864V9H33.0952V4.51705C33.0952 4.14489 32.9744 3.84517 32.733 3.6179C32.4915 3.38778 32.1804 3.27273 31.7997 3.27273C31.5384 3.27273 31.294 3.34233 31.0668 3.48153C30.8423 3.62074 30.6605 3.81392 30.5213 4.06108C30.3849 4.3054 30.3168 4.58807 30.3168 4.90909V9H29.3111ZM39.8771 9V0.272727H40.8828V3.49432H40.968C41.0419 3.38068 41.1442 3.2358 41.2749 3.05966C41.4084 2.88068 41.5987 2.72159 41.8459 2.58239C42.0959 2.44034 42.4339 2.36932 42.8601 2.36932C43.4112 2.36932 43.897 2.5071 44.3175 2.78267C44.7379 3.05824 45.0661 3.44886 45.3018 3.95455C45.5376 4.46023 45.6555 5.05682 45.6555 5.74432C45.6555 6.4375 45.5376 7.03835 45.3018 7.54688C45.0661 8.05256 44.7393 8.4446 44.3217 8.72301C43.9041 8.99858 43.4226 9.13636 42.8771 9.13636C42.4567 9.13636 42.12 9.06676 41.8672 8.92756C41.6143 8.78551 41.4197 8.625 41.2834 8.44602C41.147 8.2642 41.0419 8.11364 40.968 7.99432H40.8487V9H39.8771ZM40.8658 5.72727C40.8658 6.22159 40.9382 6.65767 41.0831 7.03551C41.228 7.41051 41.4396 7.70455 41.718 7.91761C41.9964 8.12784 42.3374 8.23295 42.7408 8.23295C43.1612 8.23295 43.5121 8.12216 43.7933 7.90057C44.0774 7.67614 44.2905 7.375 44.4325 6.99716C44.5774 6.61648 44.6499 6.19318 44.6499 5.72727C44.6499 5.26705 44.5788 4.85227 44.4368 4.48295C44.2976 4.1108 44.0859 3.81676 43.8018 3.60085C43.5206 3.3821 43.1669 3.27273 42.7408 3.27273C42.3317 3.27273 41.9879 3.37642 41.7095 3.58381C41.4311 3.78835 41.2209 4.07528 41.0788 4.4446C40.9368 4.81108 40.8658 5.23864 40.8658 5.72727ZM49.9382 9.13636C49.3075 9.13636 48.7635 8.99716 48.3061 8.71875C47.8516 8.4375 47.5007 8.04545 47.2536 7.54261C47.0092 7.03693 46.8871 6.44886 46.8871 5.77841C46.8871 5.10795 47.0092 4.51705 47.2536 4.00568C47.5007 3.49148 47.8445 3.09091 48.2848 2.80398C48.728 2.5142 49.245 2.36932 49.8359 2.36932C50.1768 2.36932 50.5135 2.42614 50.8459 2.53977C51.1783 2.65341 51.4808 2.83807 51.7536 3.09375C52.0263 3.34659 52.2436 3.68182 52.4055 4.09943C52.5675 4.51705 52.6484 5.03125 52.6484 5.64205V6.06818H47.603V5.19886H51.6257C51.6257 4.82955 51.5518 4.5 51.4041 4.21023C51.2592 3.92045 51.0518 3.69176 50.782 3.52415C50.5149 3.35653 50.1996 3.27273 49.8359 3.27273C49.4354 3.27273 49.0888 3.37216 48.7962 3.57102C48.5064 3.76705 48.2834 4.02273 48.1271 4.33807C47.9709 4.65341 47.8928 4.99148 47.8928 5.35227V5.93182C47.8928 6.42614 47.978 6.84517 48.1484 7.18892C48.3217 7.52983 48.5618 7.78977 48.8686 7.96875C49.1754 8.14489 49.532 8.23295 49.9382 8.23295C50.2024 8.23295 50.4411 8.19602 50.6541 8.12216C50.87 8.04545 51.0561 7.93182 51.2124 7.78125C51.3686 7.62784 51.4893 7.4375 51.5746 7.21023L52.5462 7.48295C52.4439 7.8125 52.272 8.10227 52.0305 8.35227C51.7891 8.59943 51.4908 8.79261 51.1357 8.93182C50.7805 9.06818 50.3814 9.13636 49.9382 9.13636ZM54.1783 9V2.45455H55.1499V3.44318H55.218C55.3374 3.11932 55.5533 2.85653 55.8658 2.65483C56.1783 2.45312 56.5305 2.35227 56.9226 2.35227C56.9964 2.35227 57.0888 2.35369 57.1996 2.35653C57.3104 2.35937 57.3942 2.36364 57.451 2.36932V3.39205C57.4169 3.38352 57.3388 3.37074 57.2166 3.35369C57.0973 3.33381 56.9709 3.32386 56.8374 3.32386C56.5192 3.32386 56.2351 3.39062 55.9851 3.52415C55.7379 3.65483 55.5419 3.83665 55.397 4.0696C55.255 4.29972 55.1839 4.5625 55.1839 4.85795V9H54.1783Z" fill="black"/>
</svg>
