<svg width="7" height="8" viewBox="0 0 7 8" fill="none" xmlns="http://www.w3.org/2000/svg">
<path d="M3.57955 7.13636C2.98864 7.13636 2.47017 6.99574 2.02415 6.71449C1.58097 6.43324 1.23438 6.03977 0.984375 5.53409C0.737216 5.02841 0.613636 4.4375 0.613636 3.76136C0.613636 3.07955 0.737216 2.48437 0.984375 1.97585C1.23438 1.46733 1.58097 1.07244 2.02415 0.791193C2.47017 0.509943 2.98864 0.369318 3.57955 0.369318C4.17045 0.369318 4.6875 0.509943 5.13068 0.791193C5.5767 1.07244 5.9233 1.46733 6.17045 1.97585C6.42045 2.48437 6.54545 3.07955 6.54545 3.76136C6.54545 4.4375 6.42045 5.02841 6.17045 5.53409C5.9233 6.03977 5.5767 6.43324 5.13068 6.71449C4.6875 6.99574 4.17045 7.13636 3.57955 7.13636ZM3.57955 6.23295C4.02841 6.23295 4.39773 6.1179 4.6875 5.88778C4.97727 5.65767 5.19176 5.35511 5.33097 4.98011C5.47017 4.60511 5.53977 4.19886 5.53977 3.76136C5.53977 3.32386 5.47017 2.91619 5.33097 2.53835C5.19176 2.16051 4.97727 1.85511 4.6875 1.62216C4.39773 1.3892 4.02841 1.27273 3.57955 1.27273C3.13068 1.27273 2.76136 1.3892 2.47159 1.62216C2.18182 1.85511 1.96733 2.16051 1.82812 2.53835C1.68892 2.91619 1.61932 3.32386 1.61932 3.76136C1.61932 4.19886 1.68892 4.60511 1.82812 4.98011C1.96733 5.35511 2.18182 5.65767 2.47159 5.88778C2.76136 6.1179 3.13068 6.23295 3.57955 6.23295Z" fill="black"/>
</svg>
