<svg width="46" height="10" viewBox="0 0 46 10" fill="none" xmlns="http://www.w3.org/2000/svg">
<path d="M8.42045 4.63636C8.42045 5.55682 8.25426 6.35227 7.92188 7.02273C7.58949 7.69318 7.13352 8.21023 6.55398 8.57386C5.97443 8.9375 5.3125 9.11932 4.56818 9.11932C3.82386 9.11932 3.16193 8.9375 2.58239 8.57386C2.00284 8.21023 1.54688 7.69318 1.21449 7.02273C0.882102 6.35227 0.715909 5.55682 0.715909 4.63636C0.715909 3.71591 0.882102 2.92045 1.21449 2.25C1.54688 1.57955 2.00284 1.0625 2.58239 0.698864C3.16193 0.335227 3.82386 0.153409 4.56818 0.153409C5.3125 0.153409 5.97443 0.335227 6.55398 0.698864C7.13352 1.0625 7.58949 1.57955 7.92188 2.25C8.25426 2.92045 8.42045 3.71591 8.42045 4.63636ZM7.39773 4.63636C7.39773 3.88068 7.27131 3.2429 7.01847 2.72301C6.76847 2.20312 6.42898 1.80966 6 1.54261C5.57386 1.27557 5.09659 1.14205 4.56818 1.14205C4.03977 1.14205 3.56108 1.27557 3.1321 1.54261C2.70597 1.80966 2.36648 2.20312 2.11364 2.72301C1.86364 3.2429 1.73864 3.88068 1.73864 4.63636C1.73864 5.39205 1.86364 6.02983 2.11364 6.54972C2.36648 7.0696 2.70597 7.46307 3.1321 7.73011C3.56108 7.99716 4.03977 8.13068 4.56818 8.13068C5.09659 8.13068 5.57386 7.99716 6 7.73011C6.42898 7.46307 6.76847 7.0696 7.01847 6.54972C7.27131 6.02983 7.39773 5.39205 7.39773 4.63636ZM12.7202 9.13636C12.1065 9.13636 11.5781 8.99148 11.1349 8.7017C10.6918 8.41193 10.3509 8.01278 10.1122 7.50426C9.87358 6.99574 9.75426 6.41477 9.75426 5.76136C9.75426 5.09659 9.87642 4.50994 10.1207 4.00142C10.3679 3.49006 10.7116 3.09091 11.152 2.80398C11.5952 2.5142 12.1122 2.36932 12.7031 2.36932C13.1634 2.36932 13.5781 2.45455 13.9474 2.625C14.3168 2.79545 14.6193 3.03409 14.8551 3.34091C15.0909 3.64773 15.2372 4.00568 15.294 4.41477H14.2884C14.2116 4.11648 14.0412 3.85227 13.777 3.62216C13.5156 3.3892 13.1634 3.27273 12.7202 3.27273C12.3281 3.27273 11.9844 3.375 11.6889 3.57955C11.3963 3.78125 11.1676 4.06676 11.0028 4.43608C10.8409 4.80256 10.7599 5.23295 10.7599 5.72727C10.7599 6.23295 10.8395 6.6733 10.9986 7.0483C11.1605 7.4233 11.3878 7.71449 11.6804 7.92188C11.9759 8.12926 12.3224 8.23295 12.7202 8.23295C12.9815 8.23295 13.2188 8.1875 13.4318 8.09659C13.6449 8.00568 13.8253 7.875 13.973 7.70455C14.1207 7.53409 14.2259 7.32955 14.2884 7.09091H15.294C15.2372 7.47727 15.0966 7.82528 14.8722 8.13494C14.6506 8.44176 14.3565 8.68608 13.9901 8.8679C13.6264 9.04688 13.2031 9.13636 12.7202 9.13636ZM19.6108 2.45455V3.30682H16.2188V2.45455H19.6108ZM17.2074 0.886364H18.2131V7.125C18.2131 7.40909 18.2543 7.62216 18.3366 7.7642C18.4219 7.90341 18.5298 7.99716 18.6605 8.04545C18.794 8.09091 18.9347 8.11364 19.0824 8.11364C19.1932 8.11364 19.2841 8.10795 19.3551 8.09659C19.4261 8.08239 19.483 8.07102 19.5256 8.0625L19.7301 8.96591C19.6619 8.99148 19.5668 9.01705 19.4446 9.04261C19.3224 9.07102 19.1676 9.08523 18.9801 9.08523C18.696 9.08523 18.4176 9.02415 18.1449 8.90199C17.875 8.77983 17.6506 8.59375 17.4716 8.34375C17.2955 8.09375 17.2074 7.77841 17.2074 7.39773V0.886364ZM23.7124 9.13636C23.1214 9.13636 22.603 8.99574 22.157 8.71449C21.7138 8.43324 21.3672 8.03977 21.1172 7.53409C20.87 7.02841 20.7464 6.4375 20.7464 5.76136C20.7464 5.07955 20.87 4.48437 21.1172 3.97585C21.3672 3.46733 21.7138 3.07244 22.157 2.79119C22.603 2.50994 23.1214 2.36932 23.7124 2.36932C24.3033 2.36932 24.8203 2.50994 25.2635 2.79119C25.7095 3.07244 26.0561 3.46733 26.3033 3.97585C26.5533 4.48437 26.6783 5.07955 26.6783 5.76136C26.6783 6.4375 26.5533 7.02841 26.3033 7.53409C26.0561 8.03977 25.7095 8.43324 25.2635 8.71449C24.8203 8.99574 24.3033 9.13636 23.7124 9.13636ZM23.7124 8.23295C24.1612 8.23295 24.5305 8.1179 24.8203 7.88778C25.1101 7.65767 25.3246 7.35511 25.4638 6.98011C25.603 6.60511 25.6726 6.19886 25.6726 5.76136C25.6726 5.32386 25.603 4.91619 25.4638 4.53835C25.3246 4.16051 25.1101 3.85511 24.8203 3.62216C24.5305 3.3892 24.1612 3.27273 23.7124 3.27273C23.2635 3.27273 22.8942 3.3892 22.6044 3.62216C22.3146 3.85511 22.1001 4.16051 21.9609 4.53835C21.8217 4.91619 21.7521 5.32386 21.7521 5.76136C21.7521 6.19886 21.8217 6.60511 21.9609 6.98011C22.1001 7.35511 22.3146 7.65767 22.6044 7.88778C22.8942 8.1179 23.2635 8.23295 23.7124 8.23295ZM28.3498 9V0.272727H29.3555V3.49432H29.4407C29.5146 3.38068 29.6168 3.2358 29.7475 3.05966C29.881 2.88068 30.0714 2.72159 30.3185 2.58239C30.5685 2.44034 30.9066 2.36932 31.3327 2.36932C31.8839 2.36932 32.3697 2.5071 32.7901 2.78267C33.2106 3.05824 33.5387 3.44886 33.7745 3.95455C34.0103 4.46023 34.1282 5.05682 34.1282 5.74432C34.1282 6.4375 34.0103 7.03835 33.7745 7.54688C33.5387 8.05256 33.212 8.4446 32.7944 8.72301C32.3768 8.99858 31.8952 9.13636 31.3498 9.13636C30.9293 9.13636 30.5927 9.06676 30.3398 8.92756C30.087 8.78551 29.8924 8.625 29.756 8.44602C29.6197 8.2642 29.5146 8.11364 29.4407 7.99432H29.3214V9H28.3498ZM29.3384 5.72727C29.3384 6.22159 29.4109 6.65767 29.5558 7.03551C29.7006 7.41051 29.9123 7.70455 30.1907 7.91761C30.4691 8.12784 30.81 8.23295 31.2134 8.23295C31.6339 8.23295 31.9847 8.12216 32.266 7.90057C32.5501 7.67614 32.7631 7.375 32.9052 6.99716C33.0501 6.61648 33.1225 6.19318 33.1225 5.72727C33.1225 5.26705 33.0515 4.85227 32.9094 4.48295C32.7702 4.1108 32.5586 3.81676 32.2745 3.60085C31.9933 3.3821 31.6396 3.27273 31.2134 3.27273C30.8043 3.27273 30.4606 3.37642 30.1822 3.58381C29.9038 3.78835 29.6935 4.07528 29.5515 4.4446C29.4094 4.81108 29.3384 5.23864 29.3384 5.72727ZM38.4109 9.13636C37.7802 9.13636 37.2362 8.99716 36.7788 8.71875C36.3242 8.4375 35.9734 8.04545 35.7262 7.54261C35.4819 7.03693 35.3597 6.44886 35.3597 5.77841C35.3597 5.10795 35.4819 4.51705 35.7262 4.00568C35.9734 3.49148 36.3171 3.09091 36.7575 2.80398C37.2006 2.5142 37.7177 2.36932 38.3086 2.36932C38.6495 2.36932 38.9862 2.42614 39.3185 2.53977C39.6509 2.65341 39.9535 2.83807 40.2262 3.09375C40.4989 3.34659 40.7163 3.68182 40.8782 4.09943C41.0401 4.51705 41.1211 5.03125 41.1211 5.64205V6.06818H36.0756V5.19886H40.0984C40.0984 4.82955 40.0245 4.5 39.8768 4.21023C39.7319 3.92045 39.5245 3.69176 39.2546 3.52415C38.9876 3.35653 38.6722 3.27273 38.3086 3.27273C37.908 3.27273 37.5614 3.37216 37.2688 3.57102C36.979 3.76705 36.756 4.02273 36.5998 4.33807C36.4435 4.65341 36.3654 4.99148 36.3654 5.35227V5.93182C36.3654 6.42614 36.4506 6.84517 36.6211 7.18892C36.7944 7.52983 37.0344 7.78977 37.3413 7.96875C37.6481 8.14489 38.0046 8.23295 38.4109 8.23295C38.6751 8.23295 38.9137 8.19602 39.1268 8.12216C39.3427 8.04545 39.5288 7.93182 39.685 7.78125C39.8413 7.62784 39.962 7.4375 40.0472 7.21023L41.0188 7.48295C40.9165 7.8125 40.7447 8.10227 40.5032 8.35227C40.2617 8.59943 39.9634 8.79261 39.6083 8.93182C39.2532 9.06818 38.854 9.13636 38.4109 9.13636ZM42.6509 9V2.45455H43.6225V3.44318H43.6907C43.81 3.11932 44.0259 2.85653 44.3384 2.65483C44.6509 2.45312 45.0032 2.35227 45.3952 2.35227C45.4691 2.35227 45.5614 2.35369 45.6722 2.35653C45.783 2.35937 45.8668 2.36364 45.9237 2.36932V3.39205C45.8896 3.38352 45.8114 3.37074 45.6893 3.35369C45.57 3.33381 45.4435 3.32386 45.31 3.32386C44.9918 3.32386 44.7077 3.39062 44.4577 3.52415C44.2106 3.65483 44.0146 3.83665 43.8697 4.0696C43.7276 4.29972 43.6566 4.5625 43.6566 4.85795V9H42.6509Z" fill="black"/>
</svg>
