<svg width="7" height="10" viewBox="0 0 7 10" fill="none" xmlns="http://www.w3.org/2000/svg">
<path d="M0.920455 9.45455V0.454545H1.89205V1.49432H2.01136C2.08523 1.38068 2.1875 1.2358 2.31818 1.05966C2.4517 0.880682 2.64205 0.721591 2.8892 0.582386C3.1392 0.440341 3.47727 0.369318 3.90341 0.369318C4.45455 0.369318 4.94034 0.507102 5.3608 0.78267C5.78125 1.05824 6.10938 1.44886 6.34517 1.95455C6.58097 2.46023 6.69886 3.05682 6.69886 3.74432C6.69886 4.4375 6.58097 5.03835 6.34517 5.54688C6.10938 6.05256 5.78267 6.4446 5.36506 6.72301C4.94744 6.99858 4.46591 7.13636 3.92045 7.13636C3.5 7.13636 3.16335 7.06676 2.91051 6.92756C2.65767 6.78551 2.46307 6.625 2.3267 6.44602C2.19034 6.2642 2.08523 6.11364 2.01136 5.99432H1.92614V9.45455H0.920455ZM1.90909 3.72727C1.90909 4.22159 1.98153 4.65767 2.12642 5.03551C2.27131 5.41051 2.48295 5.70455 2.76136 5.91761C3.03977 6.12784 3.38068 6.23295 3.78409 6.23295C4.20455 6.23295 4.5554 6.12216 4.83665 5.90057C5.12074 5.67614 5.33381 5.375 5.47585 4.99716C5.62074 4.61648 5.69318 4.19318 5.69318 3.72727C5.69318 3.26705 5.62216 2.85227 5.48011 2.48295C5.34091 2.1108 5.12926 1.81676 4.84517 1.60085C4.56392 1.3821 4.21023 1.27273 3.78409 1.27273C3.375 1.27273 3.03125 1.37642 2.75284 1.58381C2.47443 1.78835 2.2642 2.07528 2.12216 2.4446C1.98011 2.81108 1.90909 3.23864 1.90909 3.72727Z" fill="black"/>
</svg>
