<svg width="6" height="9" viewBox="0 0 6 9" fill="none" xmlns="http://www.w3.org/2000/svg">
<path d="M0.0568182 9V0.272727H3.00568C3.69034 0.272727 4.25 0.396307 4.68466 0.643466C5.12216 0.887784 5.44602 1.21875 5.65625 1.63636C5.86648 2.05398 5.97159 2.51989 5.97159 3.03409C5.97159 3.5483 5.86648 4.01562 5.65625 4.43608C5.44886 4.85653 5.12784 5.19176 4.69318 5.44176C4.25852 5.68892 3.7017 5.8125 3.02273 5.8125H0.909091V4.875H2.98864C3.45739 4.875 3.83381 4.79403 4.1179 4.6321C4.40199 4.47017 4.60795 4.25142 4.7358 3.97585C4.86648 3.69744 4.93182 3.38352 4.93182 3.03409C4.93182 2.68466 4.86648 2.37216 4.7358 2.09659C4.60795 1.82102 4.40057 1.60511 4.11364 1.44886C3.8267 1.28977 3.44602 1.21023 2.97159 1.21023H1.11364V9H0.0568182Z" fill="black"/>
</svg>
