<svg width="7" height="10" viewBox="0 0 7 10" fill="none" xmlns="http://www.w3.org/2000/svg">
<path d="M5.38636 9.45455V5.99432H5.30114C5.22727 6.11364 5.12216 6.2642 4.9858 6.44602C4.84943 6.625 4.65483 6.78551 4.40199 6.92756C4.14915 7.06676 3.8125 7.13636 3.39205 7.13636C2.84659 7.13636 2.36506 6.99858 1.94744 6.72301C1.52983 6.4446 1.20313 6.05256 0.96733 5.54688C0.731534 5.03835 0.613636 4.4375 0.613636 3.74432C0.613636 3.05682 0.731534 2.46023 0.96733 1.95455C1.20313 1.44886 1.53125 1.05824 1.9517 0.78267C2.37216 0.507102 2.85795 0.369318 3.40909 0.369318C3.83523 0.369318 4.17188 0.440341 4.41903 0.582386C4.66903 0.721591 4.85938 0.880682 4.99006 1.05966C5.12358 1.2358 5.22727 1.38068 5.30114 1.49432H5.42045V0.454545H6.39205V9.45455H5.38636ZM3.52841 6.23295C3.93182 6.23295 4.27273 6.12784 4.55114 5.91761C4.82955 5.70455 5.04119 5.41051 5.18608 5.03551C5.33097 4.65767 5.40341 4.22159 5.40341 3.72727C5.40341 3.23864 5.33239 2.81108 5.19034 2.4446C5.0483 2.07528 4.83807 1.78835 4.55966 1.58381C4.28125 1.37642 3.9375 1.27273 3.52841 1.27273C3.10227 1.27273 2.74716 1.3821 2.46307 1.60085C2.18182 1.81676 1.97017 2.1108 1.82812 2.48295C1.68892 2.85227 1.61932 3.26705 1.61932 3.72727C1.61932 4.19318 1.69034 4.61648 1.83239 4.99716C1.97727 5.375 2.19034 5.67614 2.47159 5.90057C2.75568 6.12216 3.10795 6.23295 3.52841 6.23295Z" fill="black"/>
</svg>
