<svg width="5" height="7" viewBox="0 0 5 7" fill="none" xmlns="http://www.w3.org/2000/svg">
<path d="M0.920455 7V0.454545H1.89205V1.44318H1.96023C2.07955 1.11932 2.29545 0.856534 2.60795 0.654829C2.92045 0.453125 3.27273 0.352272 3.66477 0.352272C3.73864 0.352272 3.83097 0.353693 3.94176 0.356534C4.05256 0.359375 4.13636 0.363636 4.19318 0.369318V1.39205C4.15909 1.38352 4.08097 1.37074 3.95881 1.35369C3.83949 1.33381 3.71307 1.32386 3.57955 1.32386C3.26136 1.32386 2.97727 1.39062 2.72727 1.52415C2.48011 1.65483 2.28409 1.83665 2.1392 2.0696C1.99716 2.29972 1.92614 2.5625 1.92614 2.85795V7H0.920455Z" fill="black"/>
</svg>
