<svg width="6" height="8" viewBox="0 0 6 8" fill="none" xmlns="http://www.w3.org/2000/svg">
<path d="M5.55682 1.92045L4.65341 2.17614C4.59659 2.02557 4.51278 1.87926 4.40199 1.73722C4.29403 1.59233 4.14631 1.47301 3.95881 1.37926C3.77131 1.28551 3.53125 1.23864 3.23864 1.23864C2.83807 1.23864 2.50426 1.33097 2.23722 1.51562C1.97301 1.69744 1.84091 1.92898 1.84091 2.21023C1.84091 2.46023 1.93182 2.65767 2.11364 2.80256C2.29545 2.94744 2.57955 3.06818 2.96591 3.16477L3.9375 3.40341C4.52273 3.54545 4.95881 3.76278 5.24574 4.0554C5.53267 4.34517 5.67614 4.71875 5.67614 5.17614C5.67614 5.55114 5.56818 5.88636 5.35227 6.18182C5.1392 6.47727 4.84091 6.71023 4.45739 6.88068C4.07386 7.05114 3.62784 7.13636 3.11932 7.13636C2.4517 7.13636 1.89915 6.99148 1.46165 6.7017C1.02415 6.41193 0.747159 5.98864 0.630682 5.43182L1.58523 5.19318C1.67614 5.54545 1.84801 5.80966 2.10085 5.9858C2.35653 6.16193 2.69034 6.25 3.10227 6.25C3.57102 6.25 3.94318 6.15057 4.21875 5.9517C4.49716 5.75 4.63636 5.50852 4.63636 5.22727C4.63636 5 4.55682 4.80966 4.39773 4.65625C4.23864 4.5 3.99432 4.38352 3.66477 4.30682L2.57386 4.05114C1.97443 3.90909 1.53409 3.68892 1.25284 3.39062C0.974432 3.08949 0.835227 2.71307 0.835227 2.26136C0.835227 1.89205 0.93892 1.56534 1.14631 1.28125C1.35653 0.997159 1.64205 0.774148 2.00284 0.612216C2.36648 0.450284 2.77841 0.369318 3.23864 0.369318C3.88636 0.369318 4.39489 0.511364 4.7642 0.795454C5.13636 1.07955 5.40057 1.45455 5.55682 1.92045Z" fill="black"/>
</svg>
