<svg width="63" height="12" viewBox="0 0 63 12" fill="none" xmlns="http://www.w3.org/2000/svg">
<path d="M5.82955 2.45455C5.77841 2.02273 5.57102 1.6875 5.20739 1.44886C4.84375 1.21023 4.39773 1.09091 3.86932 1.09091C3.48295 1.09091 3.14489 1.15341 2.85511 1.27841C2.56818 1.40341 2.34375 1.57528 2.18182 1.79403C2.02273 2.01278 1.94318 2.26136 1.94318 2.53977C1.94318 2.77273 1.99858 2.97301 2.10938 3.14062C2.22301 3.3054 2.3679 3.44318 2.54403 3.55398C2.72017 3.66193 2.90483 3.75142 3.09801 3.82244C3.29119 3.89062 3.46875 3.94602 3.63068 3.98864L4.51705 4.22727C4.74432 4.28693 4.99716 4.36932 5.27557 4.47443C5.55682 4.57955 5.82528 4.72301 6.08097 4.90483C6.33949 5.08381 6.55256 5.31392 6.72017 5.59517C6.88778 5.87642 6.97159 6.22159 6.97159 6.63068C6.97159 7.10227 6.84801 7.52841 6.60085 7.90909C6.35653 8.28977 5.99858 8.59233 5.52699 8.81676C5.05824 9.04119 4.48864 9.15341 3.81818 9.15341C3.19318 9.15341 2.65199 9.05256 2.1946 8.85085C1.74006 8.64915 1.3821 8.3679 1.12074 8.0071C0.862216 7.64631 0.715909 7.22727 0.681818 6.75H1.77273C1.80114 7.07955 1.91193 7.35227 2.10511 7.56818C2.30114 7.78125 2.5483 7.94034 2.84659 8.04545C3.14773 8.14773 3.47159 8.19886 3.81818 8.19886C4.22159 8.19886 4.58381 8.13352 4.90483 8.00284C5.22585 7.86932 5.48011 7.68466 5.66761 7.44886C5.85511 7.21023 5.94886 6.93182 5.94886 6.61364C5.94886 6.32386 5.8679 6.08807 5.70597 5.90625C5.54403 5.72443 5.33097 5.5767 5.06676 5.46307C4.80256 5.34943 4.51705 5.25 4.21023 5.16477L3.13636 4.85795C2.45455 4.66193 1.91477 4.3821 1.51705 4.01847C1.11932 3.65483 0.920455 3.17898 0.920455 2.59091C0.920455 2.10227 1.05256 1.67614 1.31676 1.3125C1.58381 0.946023 1.94176 0.661932 2.39062 0.460227C2.84233 0.255682 3.34659 0.153409 3.90341 0.153409C4.46591 0.153409 4.96591 0.254261 5.40341 0.455966C5.84091 0.654829 6.1875 0.927556 6.44318 1.27415C6.7017 1.62074 6.83807 2.0142 6.85227 2.45455H5.82955ZM11.3171 9.13636C10.6864 9.13636 10.1424 8.99716 9.68501 8.71875C9.23047 8.4375 8.87962 8.04545 8.63246 7.54261C8.38814 7.03693 8.26598 6.44886 8.26598 5.77841C8.26598 5.10795 8.38814 4.51705 8.63246 4.00568C8.87962 3.49148 9.22337 3.09091 9.66371 2.80398C10.1069 2.5142 10.6239 2.36932 11.2148 2.36932C11.5558 2.36932 11.8924 2.42614 12.2248 2.53977C12.5572 2.65341 12.8597 2.83807 13.1325 3.09375C13.4052 3.34659 13.6225 3.68182 13.7844 4.09943C13.9464 4.51705 14.0273 5.03125 14.0273 5.64205V6.06818H8.98189V5.19886H13.0046C13.0046 4.82955 12.9308 4.5 12.783 4.21023C12.6381 3.92045 12.4308 3.69176 12.1609 3.52415C11.8938 3.35653 11.5785 3.27273 11.2148 3.27273C10.8143 3.27273 10.4677 3.37216 10.1751 3.57102C9.8853 3.76705 9.66229 4.02273 9.50604 4.33807C9.34979 4.65341 9.27166 4.99148 9.27166 5.35227V5.93182C9.27166 6.42614 9.35689 6.84517 9.52734 7.18892C9.70064 7.52983 9.9407 7.78977 10.2475 7.96875C10.5543 8.14489 10.9109 8.23295 11.3171 8.23295C11.5813 8.23295 11.82 8.19602 12.033 8.12216C12.2489 8.04545 12.435 7.93182 12.5913 7.78125C12.7475 7.62784 12.8683 7.4375 12.9535 7.21023L13.9251 7.48295C13.8228 7.8125 13.6509 8.10227 13.4094 8.35227C13.168 8.59943 12.8697 8.79261 12.5146 8.93182C12.1594 9.06818 11.7603 9.13636 11.3171 9.13636ZM15.5572 11.4545V2.45455H16.5288V3.49432H16.6481C16.7219 3.38068 16.8242 3.2358 16.9549 3.05966C17.0884 2.88068 17.2788 2.72159 17.5259 2.58239C17.7759 2.44034 18.114 2.36932 18.5401 2.36932C19.0913 2.36932 19.5771 2.5071 19.9975 2.78267C20.418 3.05824 20.7461 3.44886 20.9819 3.95455C21.2177 4.46023 21.3356 5.05682 21.3356 5.74432C21.3356 6.4375 21.2177 7.03835 20.9819 7.54688C20.7461 8.05256 20.4194 8.4446 20.0018 8.72301C19.5842 8.99858 19.1026 9.13636 18.5572 9.13636C18.1367 9.13636 17.8001 9.06676 17.5472 8.92756C17.2944 8.78551 17.0998 8.625 16.9634 8.44602C16.8271 8.2642 16.7219 8.11364 16.6481 7.99432H16.5629V11.4545H15.5572ZM16.5458 5.72727C16.5458 6.22159 16.6183 6.65767 16.7631 7.03551C16.908 7.41051 17.1197 7.70455 17.3981 7.91761C17.6765 8.12784 18.0174 8.23295 18.4208 8.23295C18.8413 8.23295 19.1921 8.12216 19.4734 7.90057C19.7575 7.67614 19.9705 7.375 20.1126 6.99716C20.2575 6.61648 20.3299 6.19318 20.3299 5.72727C20.3299 5.26705 20.2589 4.85227 20.1168 4.48295C19.9776 4.1108 19.766 3.81676 19.4819 3.60085C19.2006 3.3821 18.8469 3.27273 18.4208 3.27273C18.0117 3.27273 17.668 3.37642 17.3896 3.58381C17.1112 3.78835 16.9009 4.07528 16.7589 4.4446C16.6168 4.81108 16.5458 5.23864 16.5458 5.72727ZM25.7163 2.45455V3.30682H22.3242V2.45455H25.7163ZM23.3129 0.886364H24.3185V7.125C24.3185 7.40909 24.3597 7.62216 24.4421 7.7642C24.5273 7.90341 24.6353 7.99716 24.766 8.04545C24.8995 8.09091 25.0401 8.11364 25.1879 8.11364C25.2987 8.11364 25.3896 8.10795 25.4606 8.09659C25.5316 8.08239 25.5884 8.07102 25.631 8.0625L25.8356 8.96591C25.7674 8.99148 25.6722 9.01705 25.5501 9.04261C25.4279 9.07102 25.2731 9.08523 25.0856 9.08523C24.8015 9.08523 24.5231 9.02415 24.2504 8.90199C23.9805 8.77983 23.756 8.59375 23.5771 8.34375C23.4009 8.09375 23.3129 7.77841 23.3129 7.39773V0.886364ZM29.9031 9.13636C29.2724 9.13636 28.7283 8.99716 28.271 8.71875C27.8164 8.4375 27.4656 8.04545 27.2184 7.54261C26.9741 7.03693 26.8519 6.44886 26.8519 5.77841C26.8519 5.10795 26.9741 4.51705 27.2184 4.00568C27.4656 3.49148 27.8093 3.09091 28.2496 2.80398C28.6928 2.5142 29.2099 2.36932 29.8008 2.36932C30.1417 2.36932 30.4783 2.42614 30.8107 2.53977C31.1431 2.65341 31.4457 2.83807 31.7184 3.09375C31.9911 3.34659 32.2085 3.68182 32.3704 4.09943C32.5323 4.51705 32.6133 5.03125 32.6133 5.64205V6.06818H27.5678V5.19886H31.5906C31.5906 4.82955 31.5167 4.5 31.369 4.21023C31.2241 3.92045 31.0167 3.69176 30.7468 3.52415C30.4798 3.35653 30.1644 3.27273 29.8008 3.27273C29.4002 3.27273 29.0536 3.37216 28.761 3.57102C28.4712 3.76705 28.2482 4.02273 28.092 4.33807C27.9357 4.65341 27.8576 4.99148 27.8576 5.35227V5.93182C27.8576 6.42614 27.9428 6.84517 28.1133 7.18892C28.2866 7.52983 28.5266 7.78977 28.8335 7.96875C29.1403 8.14489 29.4968 8.23295 29.9031 8.23295C30.1673 8.23295 30.4059 8.19602 30.619 8.12216C30.8349 8.04545 31.021 7.93182 31.1772 7.78125C31.3335 7.62784 31.4542 7.4375 31.5394 7.21023L32.511 7.48295C32.4087 7.8125 32.2369 8.10227 31.9954 8.35227C31.7539 8.59943 31.4556 8.79261 31.1005 8.93182C30.7454 9.06818 30.3462 9.13636 29.9031 9.13636ZM34.1431 9V2.45455H35.1147V3.47727H35.1999C35.3363 3.12784 35.5565 2.85653 35.8604 2.66335C36.1644 2.46733 36.5295 2.36932 36.9556 2.36932C37.3874 2.36932 37.7468 2.46733 38.0337 2.66335C38.3235 2.85653 38.5494 3.12784 38.7113 3.47727H38.7795C38.9471 3.1392 39.1985 2.87074 39.5337 2.67188C39.869 2.47017 40.271 2.36932 40.7397 2.36932C41.3249 2.36932 41.8036 2.55256 42.1758 2.91903C42.5479 3.28267 42.734 3.84943 42.734 4.61932V9H41.7283V4.61932C41.7283 4.13636 41.5962 3.79119 41.332 3.58381C41.0678 3.37642 40.7567 3.27273 40.3988 3.27273C39.9386 3.27273 39.582 3.41193 39.3292 3.69034C39.0763 3.96591 38.9499 4.31534 38.9499 4.73864V9H37.9272V4.51705C37.9272 4.14489 37.8065 3.84517 37.565 3.6179C37.3235 3.38778 37.0124 3.27273 36.6317 3.27273C36.3704 3.27273 36.1261 3.34233 35.8988 3.48153C35.6744 3.62074 35.4925 3.81392 35.3533 4.06108C35.217 4.3054 35.1488 4.58807 35.1488 4.90909V9H34.1431ZM44.7092 9V0.272727H45.7148V3.49432H45.8001C45.8739 3.38068 45.9762 3.2358 46.1069 3.05966C46.2404 2.88068 46.4308 2.72159 46.6779 2.58239C46.9279 2.44034 47.266 2.36932 47.6921 2.36932C48.2433 2.36932 48.729 2.5071 49.1495 2.78267C49.57 3.05824 49.8981 3.44886 50.1339 3.95455C50.3697 4.46023 50.4876 5.05682 50.4876 5.74432C50.4876 6.4375 50.3697 7.03835 50.1339 7.54688C49.8981 8.05256 49.5714 8.4446 49.1538 8.72301C48.7362 8.99858 48.2546 9.13636 47.7092 9.13636C47.2887 9.13636 46.9521 9.06676 46.6992 8.92756C46.4464 8.78551 46.2518 8.625 46.1154 8.44602C45.979 8.2642 45.8739 8.11364 45.8001 7.99432H45.6808V9H44.7092ZM45.6978 5.72727C45.6978 6.22159 45.7702 6.65767 45.9151 7.03551C46.06 7.41051 46.2717 7.70455 46.5501 7.91761C46.8285 8.12784 47.1694 8.23295 47.5728 8.23295C47.9933 8.23295 48.3441 8.12216 48.6254 7.90057C48.9094 7.67614 49.1225 7.375 49.2646 6.99716C49.4094 6.61648 49.4819 6.19318 49.4819 5.72727C49.4819 5.26705 49.4109 4.85227 49.2688 4.48295C49.1296 4.1108 48.918 3.81676 48.6339 3.60085C48.3526 3.3821 47.9989 3.27273 47.5728 3.27273C47.1637 3.27273 46.82 3.37642 46.5415 3.58381C46.2631 3.78835 46.0529 4.07528 45.9109 4.4446C45.7688 4.81108 45.6978 5.23864 45.6978 5.72727ZM54.7702 9.13636C54.1396 9.13636 53.5955 8.99716 53.1381 8.71875C52.6836 8.4375 52.3327 8.04545 52.0856 7.54261C51.8413 7.03693 51.7191 6.44886 51.7191 5.77841C51.7191 5.10795 51.8413 4.51705 52.0856 4.00568C52.3327 3.49148 52.6765 3.09091 53.1168 2.80398C53.56 2.5142 54.0771 2.36932 54.668 2.36932C55.0089 2.36932 55.3455 2.42614 55.6779 2.53977C56.0103 2.65341 56.3129 2.83807 56.5856 3.09375C56.8583 3.34659 57.0756 3.68182 57.2376 4.09943C57.3995 4.51705 57.4805 5.03125 57.4805 5.64205V6.06818H52.435V5.19886H56.4577C56.4577 4.82955 56.3839 4.5 56.2362 4.21023C56.0913 3.92045 55.8839 3.69176 55.614 3.52415C55.3469 3.35653 55.0316 3.27273 54.668 3.27273C54.2674 3.27273 53.9208 3.37216 53.6282 3.57102C53.3384 3.76705 53.1154 4.02273 52.9592 4.33807C52.8029 4.65341 52.7248 4.99148 52.7248 5.35227V5.93182C52.7248 6.42614 52.81 6.84517 52.9805 7.18892C53.1538 7.52983 53.3938 7.78977 53.7006 7.96875C54.0075 8.14489 54.364 8.23295 54.7702 8.23295C55.0344 8.23295 55.2731 8.19602 55.4862 8.12216C55.7021 8.04545 55.8881 7.93182 56.0444 7.78125C56.2006 7.62784 56.3214 7.4375 56.4066 7.21023L57.3782 7.48295C57.2759 7.8125 57.104 8.10227 56.8626 8.35227C56.6211 8.59943 56.3228 8.79261 55.9677 8.93182C55.6126 9.06818 55.2134 9.13636 54.7702 9.13636ZM59.0103 9V2.45455H59.9819V3.44318H60.0501C60.1694 3.11932 60.3853 2.85653 60.6978 2.65483C61.0103 2.45312 61.3626 2.35227 61.7546 2.35227C61.8285 2.35227 61.9208 2.35369 62.0316 2.35653C62.1424 2.35937 62.2262 2.36364 62.283 2.36932V3.39205C62.2489 3.38352 62.1708 3.37074 62.0487 3.35369C61.9293 3.33381 61.8029 3.32386 61.6694 3.32386C61.3512 3.32386 61.0671 3.39062 60.8171 3.52415C60.57 3.65483 60.3739 3.83665 60.229 4.0696C60.087 4.29972 60.016 4.5625 60.016 4.85795V9H59.0103Z" fill="black"/>
</svg>
