<svg width="4" height="10" viewBox="0 0 4 10" fill="none" xmlns="http://www.w3.org/2000/svg">
<path d="M3.76705 2.45455V3.30682H0.375V2.45455H3.76705ZM1.36364 0.886364H2.36932V7.125C2.36932 7.40909 2.41051 7.62216 2.4929 7.7642C2.57813 7.90341 2.68608 7.99716 2.81676 8.04545C2.95028 8.09091 3.09091 8.11364 3.23864 8.11364C3.34943 8.11364 3.44034 8.10795 3.51136 8.09659C3.58239 8.08239 3.6392 8.07102 3.68182 8.0625L3.88636 8.96591C3.81818 8.99148 3.72301 9.01705 3.60085 9.04261C3.47869 9.07102 3.32386 9.08523 3.13636 9.08523C2.85227 9.08523 2.57386 9.02415 2.30114 8.90199C2.03125 8.77983 1.80682 8.59375 1.62784 8.34375C1.4517 8.09375 1.36364 7.77841 1.36364 7.39773V0.886364Z" fill="black"/>
</svg>
