<svg width="7" height="8" viewBox="0 0 7 8" fill="none" xmlns="http://www.w3.org/2000/svg">
<path d="M5.04545 4.32386V0.454545H6.05114V7H5.04545V5.89205H4.97727C4.82386 6.22443 4.58523 6.5071 4.26136 6.74006C3.9375 6.97017 3.52841 7.08523 3.03409 7.08523C2.625 7.08523 2.26136 6.99574 1.94318 6.81676C1.625 6.63494 1.375 6.36222 1.19318 5.99858C1.01136 5.6321 0.920455 5.17045 0.920455 4.61364V0.454545H1.92614V4.54545C1.92614 5.02273 2.05966 5.40341 2.3267 5.6875C2.59659 5.97159 2.94034 6.11364 3.35795 6.11364C3.60795 6.11364 3.86222 6.04972 4.12074 5.92188C4.3821 5.79403 4.60085 5.59801 4.77699 5.33381C4.95597 5.0696 5.04545 4.73295 5.04545 4.32386Z" fill="black"/>
</svg>
