<svg width="7" height="10" viewBox="0 0 7 10" fill="none" xmlns="http://www.w3.org/2000/svg">
<path d="M5.78409 0.272727H6.84091V6.05114C6.84091 6.64773 6.70028 7.1804 6.41903 7.64915C6.14063 8.11506 5.74716 8.48295 5.23864 8.75284C4.73011 9.01989 4.13352 9.15341 3.44886 9.15341C2.7642 9.15341 2.16761 9.01989 1.65909 8.75284C1.15057 8.48295 0.755682 8.11506 0.474432 7.64915C0.196023 7.1804 0.0568182 6.64773 0.0568182 6.05114V0.272727H1.11364V5.96591C1.11364 6.39205 1.20739 6.77131 1.39489 7.10369C1.58239 7.43324 1.84943 7.69318 2.19602 7.88352C2.54545 8.07102 2.96307 8.16477 3.44886 8.16477C3.93466 8.16477 4.35227 8.07102 4.7017 7.88352C5.05114 7.69318 5.31818 7.43324 5.50284 7.10369C5.69034 6.77131 5.78409 6.39205 5.78409 5.96591V0.272727Z" fill="black"/>
</svg>
