<svg width="7" height="10" viewBox="0 0 7 10" fill="none" xmlns="http://www.w3.org/2000/svg">
<path d="M1.56818 9.45455C1.39773 9.45455 1.24574 9.44034 1.11222 9.41193C0.978693 9.38636 0.886364 9.3608 0.835227 9.33523L1.09091 8.44886C1.33523 8.51136 1.55114 8.53409 1.73864 8.51705C1.92614 8.5 2.09233 8.41619 2.23722 8.26562C2.38494 8.1179 2.51989 7.87784 2.64205 7.54545L2.82955 7.03409L0.409091 0.454545H1.5L3.30682 5.67045H3.375L5.18182 0.454545H6.27273L3.49432 7.95455C3.36932 8.29261 3.21449 8.57244 3.02983 8.79403C2.84517 9.01847 2.63068 9.18466 2.38636 9.29261C2.14489 9.40057 1.87216 9.45455 1.56818 9.45455Z" fill="black"/>
</svg>
